<svg width="204" height="69" viewBox="0 0 204 69" fill="none" xmlns="http://www.w3.org/2000/svg">
<path d="M123.874 43.761C123.504 43.7742 123.2 43.2361 123.294 42.7253C124.539 35.7734 126.469 28.8501 130.076 24.147C134.196 18.8008 140.426 16.8787 146.151 19.5039C153.04 22.667 157.071 31.5101 159.864 40.7987C160.01 41.2821 159.812 41.7891 159.472 41.8088L123.874 43.761Z" fill="#DDA15E"/>
<path d="M1.83941 50.686C1.55036 50.686 1.27446 50.5415 1.01169 50.2524C0.74892 49.9896 0.591259 49.7137 0.538705 49.4247C0.538705 49.3984 0.880305 48.8597 1.5635 47.8087C2.22043 46.7839 3.1007 45.4306 4.20433 43.7489C5.33423 42.0672 6.60866 40.1621 8.02761 38.0337C9.44657 35.9052 10.9049 33.7243 12.4027 31.4907C13.9005 29.2572 15.3851 27.0762 16.8566 24.9478C18.3281 22.8194 19.6551 20.9274 20.8376 19.272C22.02 17.5903 22.9923 16.2501 23.7543 15.2516C24.5426 14.2268 25.0156 13.7144 25.1733 13.7144C25.2784 13.7144 25.3835 13.767 25.4886 13.8721C25.62 13.9509 25.7251 14.056 25.8039 14.1874C25.909 14.3188 25.9879 14.4502 26.0404 14.5816C26.1192 14.7129 26.1587 14.8181 26.1587 14.8969C26.1587 14.9232 25.8565 15.383 25.2521 16.2764C24.674 17.1698 23.8857 18.3523 22.8872 19.8238C21.9149 21.269 20.785 22.9376 19.4975 24.8295C18.2362 26.6952 16.9223 28.6265 15.5559 30.6236C14.2158 32.5944 12.8757 34.552 11.5356 36.4965C10.2217 38.441 9.013 40.2147 7.90937 41.8175C6.80574 43.3942 5.87291 44.7343 5.11088 45.8379C4.34885 46.9415 3.84959 47.6379 3.6131 47.9269C3.71821 47.9269 4.20433 47.7824 5.07147 47.4933C5.96488 47.2043 7.23931 46.8758 8.89475 46.508C9.5254 46.3766 10.1429 46.2321 10.7473 46.0744C11.3779 45.943 12.0611 45.8116 12.7969 45.6802C13.5326 45.5751 14.3341 45.4832 15.2012 45.4043C16.0946 45.3255 17.1194 45.2861 18.2756 45.2861C18.9062 45.2861 19.4843 45.2992 20.0099 45.3255C20.5617 45.3781 21.0478 45.4569 21.4682 45.562C21.8887 45.6934 22.2171 45.8773 22.4536 46.1138C22.6901 46.3503 22.8084 46.6656 22.8084 47.0598C22.8084 47.27 22.7821 47.4802 22.7295 47.6904C22.677 47.9006 22.5719 48.0846 22.4142 48.2422C22.1777 48.2422 21.9675 48.124 21.7836 47.8875C21.5996 47.651 21.4551 47.4014 21.35 47.1386C21.1923 47.0861 20.969 47.0335 20.6799 46.9809C20.3909 46.9547 19.9048 46.9415 19.2216 46.9415C16.7515 46.9415 14.0844 47.2831 11.2203 47.9663C8.38235 48.6495 5.54445 49.4904 2.70655 50.4889C2.60144 50.5415 2.45692 50.5809 2.27298 50.6072C2.11532 50.6597 1.97079 50.686 1.83941 50.686ZM26.8697 19.1537C27.0273 19.1012 27.2638 18.8778 27.5791 18.4837C27.9207 18.0895 28.2492 17.6428 28.5645 17.1436C28.9061 16.618 29.1952 16.1056 29.4317 15.6064C29.6682 15.1071 29.7864 14.7261 29.7864 14.4633C29.8127 14.437 29.8784 14.4239 29.9835 14.4239C30.2463 14.4239 30.5353 14.5159 30.8506 14.6998C31.1659 14.8575 31.3762 15.0414 31.4813 15.2516C31.5075 15.4093 31.4024 15.7115 31.1659 16.1582C30.9557 16.6049 30.693 17.0779 30.3776 17.5771C30.0886 18.0501 29.7733 18.4968 29.4317 18.9172C29.1163 19.3114 28.8667 19.5348 28.6828 19.5873C28.5251 19.6399 28.3543 19.6661 28.1704 19.6661C27.8813 19.6661 27.6054 19.6267 27.3427 19.5479C27.0799 19.4691 26.9222 19.3377 26.8697 19.1537ZM35.9475 41.5022C35.9475 40.8453 36.1052 40.1095 36.4205 39.295C36.7358 38.4541 37.1562 37.6132 37.6818 36.7724C38.2336 35.9052 38.8511 35.0775 39.5343 34.2892C40.2438 33.4746 40.9664 32.752 41.7021 32.1214C42.4642 31.4645 43.2262 30.9521 43.9882 30.5842C44.7503 30.19 45.4597 29.9929 46.1167 29.9929C46.7473 29.9929 47.2597 30.1112 47.6539 30.3477C48.0743 30.5842 48.5079 30.9258 48.9546 31.3725C49.0071 31.3462 49.0991 31.2937 49.2305 31.2148C49.3881 31.1097 49.5589 31.0177 49.7429 30.9389C49.9268 30.8338 50.0845 30.755 50.2159 30.7024C50.3735 30.6236 50.4786 30.5842 50.5312 30.5842C50.8202 30.5842 51.083 30.7287 51.3195 31.0177C51.5822 31.2805 51.7136 31.5564 51.7136 31.8455V31.9637C51.2407 32.463 50.7151 33.0542 50.137 33.7374C49.5589 34.4206 48.9808 35.1432 48.4027 35.9052C47.8509 36.641 47.3254 37.3767 46.8261 38.1125C46.3269 38.822 45.9064 39.4789 45.5648 40.0833C45.2232 40.6614 44.9868 41.1343 44.8554 41.5022C44.7503 41.8438 44.8028 42.0146 45.013 42.0146C45.2232 42.0146 45.5648 41.8964 46.0378 41.6599C46.5371 41.4234 47.102 41.1212 47.7327 40.7533C48.3896 40.3592 49.0728 39.9256 49.7823 39.4526C50.518 38.9796 51.2275 38.5198 51.9107 38.0731C52.5939 37.6001 53.1983 37.1665 53.7238 36.7724C54.2756 36.3782 54.6961 36.0498 54.9851 35.787C55.0639 35.7344 55.1822 35.6293 55.3398 35.4717C55.5238 35.2877 55.7077 35.1038 55.8917 34.9199C56.1019 34.7359 56.2858 34.5783 56.4435 34.4469C56.6011 34.2892 56.7062 34.2104 56.7588 34.2104C57.0478 34.2104 57.3237 34.3286 57.5865 34.5651C57.8756 34.7753 58.0201 35.025 58.0201 35.314C58.0201 35.6819 57.7442 36.1549 57.1924 36.733C56.6405 37.2848 55.9311 37.8891 55.0639 38.5461C54.1968 39.203 53.2377 39.8599 52.1866 40.5168C51.1355 41.1738 50.1107 41.7781 49.1122 42.3299C48.1137 42.8555 47.2072 43.2759 46.3926 43.5912C45.578 43.9328 44.9868 44.1036 44.6189 44.1036C44.1722 44.1036 43.778 43.8803 43.4364 43.4336C43.1211 42.9869 42.9634 42.5402 42.9634 42.0934C42.9634 41.8044 43.0291 41.4365 43.1605 40.9898C43.2919 40.5168 43.4627 40.0964 43.6729 39.7285C43.2788 39.9913 42.8058 40.346 42.254 40.7927C41.7284 41.2132 41.1766 41.6336 40.5985 42.054C40.0467 42.4482 39.5212 42.7898 39.0219 43.0788C38.5226 43.3679 38.1285 43.5124 37.8394 43.5124C37.603 43.5124 37.3665 43.4467 37.13 43.3153C36.9198 43.2102 36.7227 43.0657 36.5387 42.8818C36.3811 42.6715 36.2366 42.4482 36.1052 42.2117C36.0001 41.9752 35.9475 41.7387 35.9475 41.5022ZM38.1154 41.2263C38.273 41.2263 38.6146 41.0424 39.1401 40.6745C39.692 40.3066 40.3095 39.8468 40.9927 39.295C41.7021 38.7169 42.4379 38.0862 43.1999 37.403C43.9882 36.7198 44.6977 36.0498 45.3284 35.3928C45.9853 34.7359 46.524 34.1316 46.9444 33.5797C47.3648 33.0279 47.575 32.6075 47.575 32.3184C47.575 32.082 47.4568 31.9506 47.2203 31.9243C46.9838 31.8717 46.813 31.8455 46.7079 31.8455C46.2612 31.8455 45.7356 32.0163 45.1313 32.3579C44.5269 32.6995 43.9094 33.1462 43.2788 33.698C42.6481 34.2498 42.0175 34.8804 41.3868 35.5899C40.7825 36.2731 40.2306 36.9695 39.7314 37.6789C39.2584 38.3621 38.8642 39.0191 38.5489 39.6497C38.2599 40.2803 38.1154 40.8059 38.1154 41.2263ZM50.2448 47.651C50.166 46.2583 50.4944 44.7343 51.2302 43.0788C51.9659 41.4497 52.8725 39.8205 53.9498 38.1913C55.0272 36.5359 56.144 34.9593 57.3001 33.4615C58.4826 31.9637 59.4811 30.6761 60.2957 29.5988L60.7687 29.0076H55.8812C55.4345 29.0076 54.9878 29.0207 54.5411 29.047C54.0944 29.0733 53.6477 29.0864 53.2009 29.0864C53.0696 28.955 52.9382 28.7973 52.8068 28.6134C52.6754 28.4032 52.6097 28.1667 52.6097 27.9039C52.6097 27.5886 52.7148 27.3258 52.925 27.1156C53.5294 27.0894 54.1338 27.0762 54.7381 27.0762C55.3688 27.0762 55.9994 27.0762 56.6301 27.0762C57.2344 27.0762 57.8388 27.0762 58.4432 27.0762C59.0738 27.0762 59.6913 27.0631 60.2957 27.0368C60.7161 26.9842 61.1234 26.958 61.5176 26.958C61.9117 26.9317 62.2927 26.9054 62.6606 26.8791C63.2124 26.3273 63.7774 25.6967 64.3555 24.9872C64.9598 24.2777 65.5379 23.5814 66.0898 22.8982C66.6416 22.215 67.1408 21.5975 67.5875 21.0457C68.0605 20.4676 68.4547 20.0603 68.77 19.8238H68.9671C69.1773 19.8238 69.3744 19.9683 69.5583 20.2574C69.7685 20.5464 69.8736 20.796 69.8736 21.0063C69.8999 21.269 69.7554 21.65 69.4401 22.1493C69.1247 22.6486 68.7437 23.1872 68.297 23.7653C67.8503 24.3171 67.3773 24.869 66.8781 25.4208C66.4051 25.9726 65.9846 26.4324 65.6168 26.8003H66.1686C66.589 26.8003 67.0226 26.8266 67.4693 26.8791C67.916 26.9054 68.3233 26.9842 68.6912 27.1156C69.059 27.2207 69.3612 27.3915 69.5977 27.628C69.8342 27.8382 69.9525 28.1273 69.9525 28.4952C69.9525 28.6003 69.9393 28.7448 69.913 28.9287C69.8868 29.1127 69.8079 29.2046 69.6765 29.2046H69.2824C69.0722 29.0733 68.6912 28.9813 68.1393 28.9287C67.5875 28.8762 67.0094 28.8499 66.4051 28.8499C65.9584 28.8499 65.5379 28.863 65.1438 28.8893C64.7496 28.8893 64.4474 28.8893 64.2372 28.8893H63.8431L63.2519 29.5988C62.7526 30.0981 62.1219 30.8075 61.3599 31.7272C60.6242 32.6206 59.8359 33.6323 58.995 34.7622C58.1804 35.8658 57.3658 37.0483 56.5512 38.3096C55.7367 39.5446 55.0009 40.7665 54.344 41.9752C53.6871 43.1839 53.1615 44.3138 52.7674 45.3649C52.3732 46.4423 52.1893 47.362 52.2156 48.124C52.2156 48.2817 52.2681 48.4656 52.3732 48.6758C52.4783 48.886 52.4521 49.07 52.2944 49.2276C52.2156 49.3065 52.1236 49.3459 52.0185 49.3459C51.5718 49.3459 51.1645 49.1751 50.7966 48.8335C50.4287 48.5181 50.2448 48.124 50.2448 47.651ZM62.7653 40.2409C62.7653 39.1373 63.0938 37.9811 63.7507 36.7724C64.4076 35.5636 65.2353 34.46 66.2339 33.4615C67.2324 32.4367 68.336 31.609 69.5448 30.9783C70.7535 30.3214 71.9097 29.9929 73.0133 29.9929C73.8016 29.9929 74.3403 30.282 74.6293 30.8601C74.9446 31.4119 75.1023 32.0031 75.1023 32.6338C75.1023 33.3695 74.7607 34.1053 74.0775 34.841C73.3943 35.5505 72.5666 36.1812 71.5943 36.733C70.6221 37.2848 69.6104 37.7315 68.5594 38.0731C67.5083 38.4147 66.6149 38.5855 65.8791 38.5855C65.7477 38.5855 65.6164 38.5855 65.485 38.5855C65.3536 38.5855 65.2353 38.5592 65.1302 38.5067C65.0514 38.6643 64.9726 38.8614 64.8937 39.0979C64.8149 39.3081 64.7361 39.5315 64.6573 39.7679C64.6047 40.0044 64.5521 40.2278 64.4996 40.438C64.4733 40.6482 64.4602 40.8059 64.4602 40.911C64.4602 41.7781 64.92 42.2117 65.8397 42.2117C66.6017 42.2117 67.5083 42.0146 68.5594 41.6205C69.6367 41.2263 70.7535 40.7402 71.9097 40.1621C73.0921 39.5577 74.2615 38.9139 75.4176 38.2307C76.5738 37.5213 77.6118 36.8775 78.5314 36.2994C79.4511 35.695 80.2132 35.1958 80.8175 34.8016C81.4219 34.4075 81.7504 34.2104 81.8029 34.2104C82.092 34.2104 82.3941 34.3286 82.7095 34.5651C83.0248 34.7753 83.1824 35.0512 83.1824 35.3928C83.1824 35.5768 82.854 35.9184 82.1971 36.4176C81.5664 36.9169 80.7387 37.4819 79.7139 38.1125C78.6891 38.7431 77.5461 39.4001 76.2848 40.0833C75.0498 40.7665 73.8147 41.3971 72.5797 41.9752C71.3447 42.527 70.1885 42.9869 69.1112 43.3547C68.0601 43.7226 67.2192 43.9066 66.5886 43.9066C66.1682 43.9066 65.7215 43.8146 65.2485 43.6306C64.8018 43.4467 64.3945 43.1971 64.0266 42.8818C63.6587 42.5664 63.3565 42.1854 63.1201 41.7387C62.8836 41.292 62.7653 40.7927 62.7653 40.2409ZM66.1156 36.7724H66.3521C66.9302 36.7724 67.5346 36.6541 68.1652 36.4176C68.8221 36.1549 69.4528 35.8396 70.0572 35.4717C70.6615 35.1038 71.2265 34.7096 71.752 34.2892C72.2775 33.8425 72.698 33.4352 73.0133 33.0673C73.3549 32.6995 73.5651 32.3973 73.6439 32.1608C73.7491 31.898 73.6702 31.7666 73.4075 31.7666C72.7243 31.7666 72.0411 31.9112 71.3579 32.2002C70.6747 32.463 70.0177 32.8177 69.3871 33.2644C68.7564 33.6848 68.1784 34.171 67.6528 34.7228C67.1273 35.2746 66.6806 35.8264 66.3127 36.3782L66.1156 36.7724ZM81.2151 44.3795C80.3217 44.3795 79.6253 44.143 79.1261 43.6701C78.6268 43.1971 78.3772 42.5139 78.3772 41.6205C78.3772 40.6745 78.7188 39.492 79.402 38.0731C80.1114 36.6279 81.018 35.0907 82.1216 33.4615C83.2252 31.8061 84.4603 30.1112 85.8267 28.3769C87.1931 26.6164 88.5463 24.9478 89.8864 23.3712C91.2528 21.7946 92.5273 20.3756 93.7097 19.1143C94.8922 17.853 95.8513 16.8808 96.587 16.1976C96.8761 16.2501 97.1257 16.4078 97.3359 16.6706C97.5724 16.9071 97.6907 17.1698 97.6907 17.4589C97.6907 17.564 97.4279 17.945 96.9024 18.6019C96.4031 19.2326 95.733 20.0603 94.8922 21.0851C94.0776 22.0836 93.1316 23.2267 92.0543 24.5142C91.0032 25.8018 89.9259 27.1419 88.8222 28.5346C87.7186 29.901 86.6281 31.2805 85.5508 32.6732C84.4997 34.0659 83.5537 35.3797 82.7128 36.6147C81.8983 37.8235 81.2282 38.9139 80.7027 39.8862C80.2034 40.8322 79.9538 41.5679 79.9538 42.0934C79.9538 42.5664 80.1771 42.8029 80.6238 42.8029C80.9654 42.8029 81.4384 42.6453 82.0428 42.3299C82.6472 41.9883 83.3172 41.5548 84.053 41.0292C84.815 40.5037 85.6164 39.9125 86.4573 39.2555C87.2982 38.5723 88.1259 37.9023 88.9405 37.2454C89.7813 36.5884 90.5828 35.9578 91.3448 35.3534C92.1068 34.7491 92.7769 34.2367 93.355 33.8162C93.5915 33.8688 93.8411 34.0264 94.1039 34.2892C94.3929 34.552 94.5374 34.8279 94.5374 35.1169C94.5374 35.3534 94.2484 35.7476 93.6703 36.2994C93.1185 36.8249 92.3959 37.4424 91.5025 38.1519C90.609 38.8351 89.6368 39.5446 88.5857 40.2803C87.5347 41.0161 86.5099 41.6862 85.5113 42.2905C84.5128 42.8949 83.6194 43.3942 82.8311 43.7883C82.0691 44.1825 81.5304 44.3795 81.2151 44.3795ZM91.1933 44.3795C90.9043 44.3795 90.5889 44.327 90.2473 44.2219C89.9057 44.143 89.5904 43.9985 89.3014 43.7883C89.0123 43.6044 88.7758 43.3547 88.5919 43.0394C88.408 42.7504 88.316 42.4088 88.316 42.0146C88.316 41.6205 88.4474 41.1475 88.7101 40.5957C88.9729 40.0176 89.3014 39.4001 89.6955 38.7431C90.1159 38.0862 90.5758 37.4162 91.0751 36.733C91.5743 36.0235 92.0736 35.3666 92.5728 34.7622C93.0721 34.1316 93.5319 33.5797 93.9524 33.1068C94.3991 32.6075 94.7538 32.2265 95.0166 31.9637H95.1348C95.3713 31.9637 95.6341 32.0951 95.9231 32.3579C96.2385 32.5944 96.3961 32.8571 96.3961 33.1462C96.3961 33.1462 96.2122 33.3958 95.8443 33.8951C95.4764 34.368 95.0297 34.9724 94.5042 35.7082C93.9786 36.4176 93.4268 37.1928 92.8487 38.0337C92.2707 38.8483 91.7583 39.6103 91.3115 40.3198C90.8648 41.0292 90.5495 41.6205 90.3656 42.0934C90.1816 42.5664 90.2211 42.8029 90.4838 42.8029C91.5086 42.8029 92.5728 42.5402 93.6765 42.0146C94.7801 41.4628 95.91 40.7796 97.0662 39.965C98.2224 39.1242 99.3785 38.2045 100.535 37.2059C101.717 36.1812 102.873 35.1826 104.003 34.2104C104.03 34.1841 104.082 34.171 104.161 34.171C104.371 34.171 104.608 34.3024 104.87 34.5651C105.133 34.8279 105.265 35.1038 105.265 35.3928C105.265 35.6293 105.002 36.0104 104.476 36.5359C103.951 37.0614 103.268 37.6658 102.427 38.349C101.612 39.0059 100.679 39.6891 99.6282 40.3986C98.5771 41.1081 97.526 41.765 96.475 42.3694C95.4502 42.9474 94.4648 43.4204 93.5188 43.7883C92.5991 44.1825 91.8239 44.3795 91.1933 44.3795ZM97.3815 30.4659C97.1713 30.4659 96.9611 30.3608 96.7509 30.1506C96.5669 29.9404 96.5538 29.6908 96.7114 29.4017C96.8166 29.2178 97.0005 28.955 97.2633 28.6134C97.526 28.2455 97.8019 27.8777 98.091 27.5098C98.4063 27.1419 98.7085 26.8003 98.9975 26.485C99.2866 26.1697 99.5099 25.9594 99.6676 25.8543C99.9041 25.8543 100.154 25.9726 100.416 26.2091C100.706 26.4193 100.85 26.6558 100.85 26.9186C100.876 27.0762 100.758 27.339 100.495 27.7069C100.233 28.0485 99.9172 28.4163 99.5493 28.8105C99.2077 29.2046 98.8661 29.5594 98.5245 29.8747C98.1829 30.19 97.9333 30.3871 97.7757 30.4659H97.3815ZM101.257 40.2409C101.257 39.1373 101.585 37.9811 102.242 36.7724C102.899 35.5636 103.727 34.46 104.725 33.4615C105.724 32.4367 106.828 31.609 108.036 30.9783C109.245 30.3214 110.401 29.9929 111.505 29.9929C112.293 29.9929 112.832 30.282 113.121 30.8601C113.436 31.4119 113.594 32.0031 113.594 32.6338C113.594 33.3695 113.252 34.1053 112.569 34.841C111.886 35.5505 111.058 36.1812 110.086 36.733C109.114 37.2848 108.102 37.7315 107.051 38.0731C106 38.4147 105.106 38.5855 104.371 38.5855C104.239 38.5855 104.108 38.5855 103.976 38.5855C103.845 38.5855 103.727 38.5592 103.622 38.5067C103.543 38.6643 103.464 38.8614 103.385 39.0979C103.306 39.3081 103.228 39.5315 103.149 39.7679C103.096 40.0044 103.044 40.2278 102.991 40.438C102.965 40.6482 102.952 40.8059 102.952 40.911C102.952 41.7781 103.412 42.2117 104.331 42.2117C105.093 42.2117 106 42.0146 107.051 41.6205C108.128 41.2263 109.245 40.7402 110.401 40.1621C111.584 39.5577 112.753 38.9139 113.909 38.2307C115.065 37.5213 116.103 36.8775 117.023 36.2994C117.943 35.695 118.705 35.1958 119.309 34.8016C119.913 34.4075 120.242 34.2104 120.294 34.2104C120.583 34.2104 120.886 34.3286 121.201 34.5651C121.516 34.7753 121.674 35.0512 121.674 35.3928C121.674 35.5768 121.346 35.9184 120.689 36.4176C120.058 36.9169 119.23 37.4819 118.205 38.1125C117.181 38.7431 116.038 39.4001 114.776 40.0833C113.541 40.7665 112.306 41.3971 111.071 41.9752C109.836 42.527 108.68 42.9869 107.603 43.3547C106.552 43.7226 105.711 43.9066 105.08 43.9066C104.66 43.9066 104.213 43.8146 103.74 43.6306C103.293 43.4467 102.886 43.1971 102.518 42.8818C102.15 42.5664 101.848 42.1854 101.612 41.7387C101.375 41.292 101.257 40.7927 101.257 40.2409ZM104.607 36.7724H104.844C105.422 36.7724 106.026 36.6541 106.657 36.4176C107.314 36.1549 107.944 35.8396 108.549 35.4717C109.153 35.1038 109.718 34.7096 110.244 34.2892C110.769 33.8425 111.189 33.4352 111.505 33.0673C111.846 32.6995 112.057 32.3973 112.135 32.1608C112.241 31.898 112.162 31.7666 111.899 31.7666C111.216 31.7666 110.533 31.9112 109.849 32.2002C109.166 32.463 108.509 32.8177 107.879 33.2644C107.248 33.6848 106.67 34.171 106.144 34.7228C105.619 35.2746 105.172 35.8264 104.804 36.3782L104.607 36.7724ZM116.159 43.3153C116.002 43.2628 115.818 43.1445 115.607 42.9606C115.371 42.7766 115.253 42.5533 115.253 42.2905C115.253 42.0803 115.41 41.6993 115.726 41.1475C116.015 40.5694 116.383 39.9125 116.829 39.1767C117.302 38.4147 117.815 37.6264 118.366 36.8118C118.945 35.9972 119.496 35.2352 120.022 34.5257C120.547 33.8162 121.02 33.2119 121.441 32.7126C121.888 32.2133 122.203 31.9243 122.387 31.8455C122.623 31.8455 122.86 32.0031 123.096 32.3184C123.333 32.6075 123.451 32.8834 123.451 33.1462C122.925 33.9345 122.426 34.6177 121.953 35.1958C121.507 35.7739 121.283 36.1417 121.283 36.2994C121.309 36.2994 121.52 36.1417 121.914 35.8264C122.334 35.4848 122.847 35.0775 123.451 34.6045C124.055 34.1053 124.712 33.5666 125.422 32.9885C126.158 32.4104 126.841 31.8849 127.471 31.4119C128.128 30.9126 128.706 30.5053 129.206 30.19C129.731 29.8484 130.086 29.6776 130.27 29.6776C130.559 29.6776 130.835 29.8353 131.098 30.1506C131.387 30.4659 131.531 30.8075 131.531 31.1754C131.531 31.3593 131.465 31.6221 131.334 31.9637C131.229 32.3053 131.098 32.66 130.94 33.0279C130.782 33.3958 130.625 33.7637 130.467 34.1316C130.309 34.4732 130.178 34.7622 130.073 34.9987C130.204 35.1038 130.362 35.314 130.546 35.6293C130.756 35.9184 130.861 36.1417 130.861 36.2994C130.861 36.6147 130.69 36.7724 130.349 36.7724C129.718 36.7724 129.245 36.5228 128.93 36.0235C128.641 35.498 128.496 34.9593 128.496 34.4075C128.496 34.2761 128.496 34.1578 128.496 34.0527C128.496 33.9213 128.522 33.7768 128.575 33.6192C127.471 34.2498 126.42 34.8673 125.422 35.4717C124.423 36.076 123.464 36.7198 122.544 37.403C121.651 38.0862 120.784 38.8614 119.943 39.7285C119.102 40.5694 118.274 41.5548 117.46 42.6847C117.355 42.8423 117.21 42.9737 117.026 43.0788C116.869 43.1839 116.711 43.289 116.553 43.3942L116.159 43.3153ZM150.866 43.9854C150.708 43.9854 150.537 43.9066 150.354 43.7489C150.196 43.6175 150.064 43.4993 149.959 43.3942L149.762 42.8818C149.762 42.619 149.946 42.1197 150.314 41.384C150.708 40.6482 151.208 39.7942 151.812 38.822C152.416 37.8497 153.073 36.8118 153.783 35.7082C154.518 34.6045 155.215 33.5666 155.872 32.5944C156.555 31.5958 157.159 30.7156 157.685 29.9535C158.237 29.1652 158.618 28.6134 158.828 28.2981L155.28 30.0718C155.228 30.1506 155.096 30.19 154.886 30.19C154.676 30.19 154.505 30.0455 154.374 29.7565C154.242 29.4674 154.151 29.2441 154.098 29.0864V28.6134C154.256 28.5346 154.518 28.3901 154.886 28.1798C155.28 27.9434 155.727 27.6806 156.226 27.3915C156.726 27.1025 157.251 26.8003 157.803 26.485C158.355 26.1697 158.854 25.8938 159.301 25.6573C159.774 25.3945 160.181 25.1843 160.523 25.0266C160.864 24.8427 161.061 24.7507 161.114 24.7507C161.456 24.7507 161.745 24.9346 161.981 25.3025C162.244 25.6441 162.375 25.9594 162.375 26.2485C162.401 26.3799 162.231 26.7609 161.863 27.3915C161.521 27.9959 161.074 28.7317 160.523 29.5988C159.997 30.4397 159.393 31.3593 158.71 32.3579C158.053 33.3564 157.409 34.3155 156.778 35.2352C156.174 36.1286 155.622 36.93 155.123 37.6395C154.65 38.349 154.308 38.8483 154.098 39.1373C153.993 39.3212 153.783 39.6891 153.467 40.2409C153.178 40.7665 152.863 41.3051 152.521 41.857C152.18 42.4088 151.851 42.8949 151.536 43.3153C151.247 43.762 151.024 43.9854 150.866 43.9854ZM162.197 44.5766C161.566 44.5766 161.014 44.4452 160.541 44.1825C160.094 43.9197 159.727 43.5781 159.438 43.1577C159.175 42.7372 158.978 42.2642 158.846 41.7387C158.715 41.2132 158.649 40.6745 158.649 40.1227C158.649 38.9665 158.912 37.7972 159.438 36.6147C159.963 35.406 160.607 34.2367 161.369 33.1068C162.131 31.9769 162.959 30.8995 163.852 29.8747C164.745 28.8499 165.547 27.9302 166.256 27.1156C166.046 26.8791 165.98 26.6164 166.059 26.3273C166.138 26.012 166.296 25.7886 166.532 25.6573C166.637 25.6573 166.756 25.6441 166.887 25.6178C167.018 25.5653 167.137 25.539 167.242 25.539C168.766 25.539 169.975 26.0251 170.868 26.9974C171.788 27.9434 172.247 29.1652 172.247 30.663C172.247 31.3462 172.116 32.1739 171.853 33.1462C171.617 34.0921 171.275 35.0775 170.829 36.1023C170.382 37.1271 169.843 38.1519 169.213 39.1767C168.582 40.1752 167.899 41.0818 167.163 41.8964C166.427 42.6847 165.639 43.3285 164.798 43.8277C163.957 44.327 163.09 44.5766 162.197 44.5766ZM161.408 43C162.144 43 162.88 42.7635 163.616 42.2905C164.351 41.8175 165.048 41.2 165.705 40.438C166.388 39.676 167.018 38.822 167.596 37.876C168.175 36.9038 168.674 35.9315 169.094 34.9593C169.541 33.987 169.883 33.0542 170.119 32.1608C170.356 31.2674 170.474 30.5053 170.474 29.8747C170.474 29.428 170.408 28.9944 170.277 28.574C170.145 28.1536 169.883 27.7988 169.488 27.5098C169.383 27.6149 169.213 27.7988 168.976 28.0616C168.74 28.2981 168.503 28.5477 168.267 28.8105C168.03 29.0733 167.807 29.3097 167.596 29.52C167.386 29.7039 167.229 29.7959 167.124 29.7959C166.756 29.7959 166.335 30.0192 165.862 30.4659C165.416 30.8864 164.943 31.4513 164.443 32.1608C163.97 32.844 163.497 33.6192 163.024 34.4863C162.551 35.3534 162.131 36.2074 161.763 37.0483C161.395 37.8891 161.093 38.6775 160.856 39.4132C160.646 40.1227 160.541 40.6876 160.541 41.1081C160.541 41.292 160.541 41.4891 160.541 41.6993C160.567 41.9095 160.607 42.1197 160.659 42.3299C160.712 42.5139 160.791 42.6715 160.896 42.8029C161.027 42.9343 161.198 43 161.408 43ZM183.511 38.6643C183.511 39.6103 183.314 40.4774 182.92 41.2657C182.526 42.0278 182 42.6715 181.344 43.1971C180.687 43.7489 179.911 44.1693 179.018 44.4584C178.151 44.7474 177.218 44.8919 176.22 44.8919C175.799 44.8919 175.287 44.8525 174.682 44.7737C174.104 44.6949 173.539 44.5503 172.987 44.3401C172.462 44.1299 172.015 43.8409 171.647 43.473C171.253 43.1314 171.056 42.6715 171.056 42.0934C171.056 41.8044 171.122 41.5022 171.253 41.1869C171.385 40.8716 171.516 40.5825 171.647 40.3198C171.858 40.3198 172.12 40.4117 172.436 40.5957C172.777 40.7533 172.948 40.9635 172.948 41.2263C172.948 41.4365 172.895 41.6205 172.79 41.7781C172.712 41.9095 172.672 42.0803 172.672 42.2905C172.672 42.5007 172.79 42.6715 173.027 42.8029C173.263 42.9343 173.526 43.0394 173.815 43.1182C174.131 43.1971 174.433 43.2496 174.722 43.2759C175.037 43.3022 175.274 43.3153 175.431 43.3153C176.272 43.3153 177.074 43.1971 177.836 42.9606C178.598 42.7241 179.268 42.3956 179.846 41.9752C180.424 41.5548 180.884 41.0686 181.225 40.5168C181.567 39.965 181.738 39.3607 181.738 38.7037C181.738 37.9943 181.541 37.4293 181.146 37.0089C180.752 36.5884 180.266 36.2468 179.688 35.9841C179.11 35.7213 178.479 35.5111 177.796 35.3534C177.113 35.1695 176.482 34.9724 175.904 34.7622C175.326 34.552 174.84 34.2892 174.446 33.9739C174.052 33.6323 173.855 33.1593 173.855 32.5549C173.855 32.1082 174.012 31.6484 174.328 31.1754C174.669 30.7024 175.037 30.2557 175.431 29.8353C175.852 29.3886 176.233 28.9813 176.574 28.6134C176.942 28.2455 177.152 27.9434 177.205 27.7069C177.126 27.628 176.995 27.5886 176.811 27.5886C176.653 27.5623 176.495 27.5361 176.338 27.5098C176.18 27.4572 176.036 27.3915 175.904 27.3127C175.773 27.2339 175.707 27.1025 175.707 26.9186V26.6426C175.865 26.5113 176.075 26.4062 176.338 26.3273C176.601 26.2222 176.876 26.1434 177.165 26.0908C177.455 26.012 177.744 25.9463 178.033 25.8938C178.348 25.8412 178.598 25.7886 178.782 25.7361C178.965 25.3682 179.268 25.0266 179.688 24.7113C180.108 24.3697 180.542 24.1989 180.989 24.1989C181.199 24.1989 181.383 24.2646 181.541 24.396C181.725 24.5011 181.79 24.6587 181.738 24.869C181.738 25.0792 181.672 25.2762 181.541 25.4602C181.409 25.6441 181.278 25.8018 181.146 25.9332C181.33 25.9332 181.554 25.9332 181.816 25.9332C182.106 25.9069 182.421 25.8938 182.762 25.8938C183.235 25.8938 183.735 25.92 184.26 25.9726C184.812 25.9989 185.311 26.0908 185.758 26.2485C186.231 26.3799 186.612 26.577 186.901 26.8397C187.19 27.0762 187.335 27.4047 187.335 27.8251C187.335 27.8777 187.322 27.9302 187.295 27.9828C187.269 28.009 187.256 28.0485 187.256 28.101L186.862 28.4163C186.31 28.0485 185.771 27.8251 185.246 27.7463C184.72 27.6674 184.142 27.628 183.511 27.628H179.964C179.281 28.5477 178.532 29.4149 177.717 30.2294C176.903 31.044 176.167 31.9506 175.51 32.9491C175.904 33.0805 176.377 33.1987 176.929 33.3038C177.481 33.4089 178.046 33.5403 178.624 33.698C179.228 33.8294 179.819 34.0133 180.398 34.2498C180.976 34.4863 181.488 34.8016 181.935 35.1958C182.408 35.5636 182.789 36.0366 183.078 36.6147C183.367 37.1665 183.511 37.8497 183.511 38.6643Z" fill="#FDFDFD"/>
<path d="M44.0167 66.0391V56.6343H45.2612V64.9292H49.893V66.0391H44.0167ZM55.6796 65.1987C55.2519 65.5622 54.8392 65.8188 54.4415 65.9685C54.048 66.1182 53.6246 66.193 53.1712 66.193C52.4228 66.193 51.8476 66.0113 51.4455 65.6477C51.0435 65.2799 50.8425 64.8116 50.8425 64.2428C50.8425 63.9092 50.9173 63.6055 51.067 63.3318C51.221 63.0538 51.4199 62.8314 51.6637 62.6646C51.9117 62.4978 52.1897 62.3717 52.4976 62.2861C52.7243 62.2263 53.0665 62.1685 53.5241 62.1129C54.4564 62.0017 55.1429 61.8691 55.5834 61.7152C55.5876 61.5569 55.5898 61.4564 55.5898 61.4137C55.5898 60.9432 55.4807 60.6118 55.2626 60.4193C54.9675 60.1584 54.5291 60.028 53.9475 60.028C53.4043 60.028 53.0023 60.1242 52.7414 60.3167C52.4848 60.5048 52.2945 60.8406 52.1705 61.3239L51.0414 61.1699C51.144 60.6866 51.313 60.2974 51.5482 60.0023C51.7834 59.7029 52.1234 59.4741 52.5682 59.3159C53.013 59.1534 53.5284 59.0721 54.1143 59.0721C54.6959 59.0721 55.1685 59.1405 55.532 59.2774C55.8956 59.4142 56.1629 59.5875 56.334 59.797C56.505 60.0023 56.6248 60.2632 56.6932 60.5797C56.7317 60.7764 56.7509 61.1314 56.7509 61.6446V63.1843C56.7509 64.2578 56.7745 64.9378 56.8215 65.2243C56.8728 65.5066 56.9712 65.7782 57.1166 66.0391H55.9105C55.7908 65.7996 55.7138 65.5194 55.6796 65.1987ZM55.5834 62.6197C55.1642 62.7908 54.5355 62.9362 53.6973 63.056C53.2226 63.1244 52.8868 63.2014 52.6901 63.2869C52.4934 63.3725 52.3415 63.4986 52.2346 63.6654C52.1277 63.8279 52.0742 64.0097 52.0742 64.2107C52.0742 64.5186 52.1897 64.7753 52.4207 64.9805C52.6559 65.1858 52.998 65.2885 53.4471 65.2885C53.8919 65.2885 54.2875 65.1922 54.6339 64.9998C54.9803 64.8031 55.2348 64.5358 55.3973 64.1979C55.5214 63.937 55.5834 63.5521 55.5834 63.0431V62.6197ZM61.742 64.0054L62.8839 63.8258C62.9481 64.2834 63.1256 64.6341 63.4164 64.8779C63.7115 65.1217 64.1221 65.2436 64.6481 65.2436C65.1784 65.2436 65.5719 65.1367 65.8285 64.9228C66.0851 64.7047 66.2134 64.4502 66.2134 64.1594C66.2134 63.8985 66.1001 63.6932 65.8734 63.5435C65.7152 63.4409 65.3217 63.3104 64.693 63.1522C63.8462 62.9384 63.2581 62.7545 62.9288 62.6005C62.6038 62.4422 62.3557 62.2263 62.1847 61.9525C62.0179 61.6746 61.9345 61.3688 61.9345 61.0352C61.9345 60.7315 62.0029 60.4514 62.1398 60.1948C62.2809 59.9339 62.4712 59.7179 62.7107 59.5468C62.8903 59.4142 63.1341 59.303 63.4421 59.2132C63.7543 59.1191 64.0879 59.0721 64.4428 59.0721C64.9774 59.0721 65.4458 59.1491 65.8478 59.303C66.2541 59.457 66.5535 59.6666 66.7459 59.9317C66.9384 60.1926 67.0709 60.5433 67.1437 60.9838L66.0146 61.1378C65.9632 60.7871 65.8136 60.5134 65.5655 60.3167C65.3217 60.1199 64.9753 60.0216 64.5262 60.0216C63.9959 60.0216 63.6174 60.1092 63.3907 60.2846C63.1641 60.4599 63.0507 60.6652 63.0507 60.9004C63.0507 61.0501 63.0978 61.1849 63.1919 61.3046C63.2859 61.4286 63.4335 61.5313 63.6345 61.6125C63.75 61.6553 64.09 61.7537 64.6545 61.9076C65.4714 62.1258 66.0402 62.3054 66.361 62.4465C66.686 62.5834 66.9405 62.7844 67.1244 63.0496C67.3083 63.3147 67.4003 63.644 67.4003 64.0375C67.4003 64.4224 67.2869 64.7859 67.0603 65.1281C66.8379 65.466 66.515 65.729 66.0916 65.9172C65.6681 66.1011 65.1891 66.193 64.6545 66.193C63.7692 66.193 63.0935 66.0091 62.6273 65.6413C62.1654 65.2735 61.8703 64.7282 61.742 64.0054ZM73.2189 65.1987C72.7912 65.5622 72.3785 65.8188 71.9808 65.9685C71.5873 66.1182 71.1639 66.193 70.7105 66.193C69.9621 66.193 69.3869 66.0113 68.9848 65.6477C68.5828 65.2799 68.3818 64.8116 68.3818 64.2428C68.3818 63.9092 68.4566 63.6055 68.6063 63.3318C68.7603 63.0538 68.9592 62.8314 69.2029 62.6646C69.451 62.4978 69.729 62.3717 70.0369 62.2861C70.2636 62.2263 70.6058 62.1685 71.0634 62.1129C71.9957 62.0017 72.6822 61.8691 73.1227 61.7152C73.1269 61.5569 73.1291 61.4564 73.1291 61.4137C73.1291 60.9432 73.02 60.6118 72.8019 60.4193C72.5068 60.1584 72.0684 60.028 71.4868 60.028C70.9436 60.028 70.5416 60.1242 70.2807 60.3167C70.0241 60.5048 69.8338 60.8406 69.7098 61.3239L68.5807 61.1699C68.6833 60.6866 68.8522 60.2974 69.0875 60.0023C69.3227 59.7029 69.6627 59.4741 70.1075 59.3159C70.5523 59.1534 71.0676 59.0721 71.6536 59.0721C72.2352 59.0721 72.7078 59.1405 73.0713 59.2774C73.4349 59.4142 73.7022 59.5875 73.8733 59.797C74.0443 60.0023 74.1641 60.2632 74.2325 60.5797C74.271 60.7764 74.2902 61.1314 74.2902 61.6446V63.1843C74.2902 64.2578 74.3138 64.9378 74.3608 65.2243C74.4121 65.5066 74.5105 65.7782 74.6559 66.0391H73.4498C73.3301 65.7996 73.2531 65.5194 73.2189 65.1987ZM73.1227 62.6197C72.7035 62.7908 72.0748 62.9362 71.2366 63.056C70.7619 63.1244 70.4261 63.2014 70.2294 63.2869C70.0327 63.3725 69.8808 63.4986 69.7739 63.6654C69.667 63.8279 69.6135 64.0097 69.6135 64.2107C69.6135 64.5186 69.729 64.7753 69.9599 64.9805C70.1952 65.1858 70.5373 65.2885 70.9864 65.2885C71.4312 65.2885 71.8268 65.1922 72.1732 64.9998C72.5196 64.8031 72.7741 64.5358 72.9366 64.1979C73.0607 63.937 73.1227 63.5521 73.1227 63.0431V62.6197ZM76.0865 66.0391V59.2261H77.1258V60.1948C77.6262 59.4463 78.349 59.0721 79.2941 59.0721C79.7047 59.0721 80.0811 59.1469 80.4232 59.2966C80.7696 59.442 81.0284 59.6345 81.1995 59.874C81.3705 60.1135 81.4903 60.3979 81.5587 60.7272C81.6015 60.9411 81.6229 61.3153 81.6229 61.8499V66.0391H80.4681V61.8948C80.4681 61.4244 80.4232 61.0737 80.3334 60.8427C80.2436 60.6075 80.0832 60.4214 79.8523 60.2846C79.6256 60.1434 79.3583 60.0729 79.0504 60.0729C78.5585 60.0729 78.133 60.229 77.7737 60.5412C77.4187 60.8534 77.2413 61.4457 77.2413 62.3182V66.0391H76.0865ZM85.9211 65.0062L86.0879 66.0262C85.7629 66.0947 85.472 66.1289 85.2154 66.1289C84.7963 66.1289 84.4713 66.0626 84.2403 65.93C84.0094 65.7974 83.8468 65.6242 83.7527 65.4104C83.6587 65.1922 83.6116 64.7368 83.6116 64.0439V60.1242H82.7648V59.2261H83.6116V57.5389L84.7599 56.846V59.2261H85.9211V60.1242H84.7599V64.1081C84.7599 64.4374 84.7792 64.6491 84.8177 64.7432C84.8604 64.8373 84.9267 64.9121 85.0165 64.9677C85.1106 65.0233 85.2432 65.0511 85.4143 65.0511C85.5426 65.0511 85.7115 65.0361 85.9211 65.0062ZM91.7205 63.845L92.9137 63.9926C92.7255 64.6897 92.377 65.2307 91.868 65.6157C91.3591 66.0006 90.709 66.193 89.9178 66.193C88.9213 66.193 88.1301 65.8872 87.5442 65.2756C86.9625 64.6598 86.6717 63.798 86.6717 62.6903C86.6717 61.5441 86.9668 60.6545 87.557 60.0216C88.1472 59.3886 88.9127 59.0721 89.8536 59.0721C90.7646 59.0721 91.5088 59.3822 92.0862 60.0023C92.6635 60.6225 92.9522 61.4949 92.9522 62.6197C92.9522 62.6882 92.9501 62.7908 92.9458 62.9277H87.8649C87.9077 63.6761 88.1194 64.2492 88.5 64.647C88.8807 65.0447 89.3554 65.2436 89.9242 65.2436C90.3476 65.2436 90.709 65.1324 91.0084 64.91C91.3078 64.6876 91.5451 64.3326 91.7205 63.845ZM87.9291 61.9782H91.7333C91.682 61.4051 91.5366 60.9753 91.2971 60.6887C90.9293 60.244 90.4524 60.0216 89.8665 60.0216C89.3361 60.0216 88.8892 60.199 88.5257 60.554C88.1664 60.909 87.9676 61.3837 87.9291 61.9782ZM89.1736 58.3793L90.0269 56.583H91.5409L90.1295 58.3793H89.1736ZM98.0267 68.6501V59.2261H99.0788V60.1114C99.3268 59.7649 99.607 59.5062 99.9192 59.3351C100.231 59.1598 100.61 59.0721 101.055 59.0721C101.636 59.0721 102.15 59.2218 102.594 59.5212C103.039 59.8205 103.375 60.244 103.602 60.7914C103.828 61.3345 103.942 61.9312 103.942 62.5812C103.942 63.2784 103.815 63.9071 103.563 64.4673C103.315 65.0233 102.951 65.451 102.472 65.7504C101.998 66.0455 101.497 66.193 100.971 66.193C100.586 66.193 100.24 66.1118 99.932 65.9492C99.6284 65.7867 99.3782 65.5814 99.1814 65.3334V68.6501H98.0267ZM99.0724 62.6711C99.0724 63.5478 99.2499 64.1957 99.6048 64.6149C99.9598 65.034 100.39 65.2436 100.894 65.2436C101.408 65.2436 101.846 65.0276 102.209 64.5956C102.577 64.1594 102.761 63.4858 102.761 62.5748C102.761 61.7066 102.582 61.0566 102.222 60.6246C101.867 60.1926 101.442 59.9766 100.946 59.9766C100.454 59.9766 100.018 60.2076 99.6369 60.6695C99.2605 61.1271 99.0724 61.7943 99.0724 62.6711ZM109.786 65.1987C109.358 65.5622 108.945 65.8188 108.548 65.9685C108.154 66.1182 107.731 66.193 107.277 66.193C106.529 66.193 105.954 66.0113 105.552 65.6477C105.15 65.2799 104.949 64.8116 104.949 64.2428C104.949 63.9092 105.024 63.6055 105.173 63.3318C105.327 63.0538 105.526 62.8314 105.77 62.6646C106.018 62.4978 106.296 62.3717 106.604 62.2861C106.831 62.2263 107.173 62.1685 107.63 62.1129C108.563 62.0017 109.249 61.8691 109.69 61.7152C109.694 61.5569 109.696 61.4564 109.696 61.4137C109.696 60.9432 109.587 60.6118 109.369 60.4193C109.074 60.1584 108.635 60.028 108.054 60.028C107.511 60.028 107.109 60.1242 106.848 60.3167C106.591 60.5048 106.401 60.8406 106.277 61.3239L105.148 61.1699C105.25 60.6866 105.419 60.2974 105.654 60.0023C105.89 59.7029 106.23 59.4741 106.674 59.3159C107.119 59.1534 107.635 59.0721 108.221 59.0721C108.802 59.0721 109.275 59.1405 109.638 59.2774C110.002 59.4142 110.269 59.5875 110.44 59.797C110.611 60.0023 110.731 60.2632 110.799 60.5797C110.838 60.7764 110.857 61.1314 110.857 61.6446V63.1843C110.857 64.2578 110.881 64.9378 110.928 65.2243C110.979 65.5066 111.077 65.7782 111.223 66.0391H110.017C109.897 65.7996 109.82 65.5194 109.786 65.1987ZM109.69 62.6197C109.27 62.7908 108.642 62.9362 107.804 63.056C107.329 63.1244 106.993 63.2014 106.796 63.2869C106.6 63.3725 106.448 63.4986 106.341 63.6654C106.234 63.8279 106.18 64.0097 106.18 64.2107C106.18 64.5186 106.296 64.7753 106.527 64.9805C106.762 65.1858 107.104 65.2885 107.553 65.2885C107.998 65.2885 108.394 65.1922 108.74 64.9998C109.087 64.8031 109.341 64.5358 109.504 64.1979C109.628 63.937 109.69 63.5521 109.69 63.0431V62.6197ZM112.641 66.0391V59.2261H113.68V60.2589C113.945 59.7756 114.189 59.457 114.411 59.303C114.638 59.1491 114.886 59.0721 115.155 59.0721C115.545 59.0721 115.94 59.1961 116.342 59.4442L115.944 60.5155C115.662 60.3487 115.38 60.2653 115.098 60.2653C114.845 60.2653 114.619 60.3423 114.418 60.4963C114.217 60.646 114.073 60.8555 113.988 61.125C113.86 61.5356 113.795 61.9846 113.795 62.4722V66.0391H112.641ZM120.66 66.0391V56.6343H121.814V66.0391H120.66ZM128.275 63.845L129.468 63.9926C129.28 64.6897 128.931 65.2307 128.422 65.6157C127.913 66.0006 127.263 66.193 126.472 66.193C125.475 66.193 124.684 65.8872 124.098 65.2756C123.517 64.6598 123.226 63.798 123.226 62.6903C123.226 61.5441 123.521 60.6545 124.111 60.0216C124.701 59.3886 125.467 59.0721 126.408 59.0721C127.319 59.0721 128.063 59.3822 128.64 60.0023C129.218 60.6225 129.506 61.4949 129.506 62.6197C129.506 62.6882 129.504 62.7908 129.5 62.9277H124.419C124.462 63.6761 124.673 64.2492 125.054 64.647C125.435 65.0447 125.91 65.2436 126.478 65.2436C126.902 65.2436 127.263 65.1324 127.562 64.91C127.862 64.6876 128.099 64.3326 128.275 63.845ZM124.483 61.9782H128.287C128.236 61.4051 128.091 60.9753 127.851 60.6887C127.483 60.244 127.007 60.0216 126.421 60.0216C125.89 60.0216 125.443 60.199 125.08 60.554C124.721 60.909 124.522 61.3837 124.483 61.9782ZM134.581 66.0391V59.2261H135.614V60.1819C135.827 59.8483 136.112 59.581 136.467 59.38C136.822 59.1747 137.226 59.0721 137.679 59.0721C138.184 59.0721 138.597 59.1769 138.917 59.3864C139.243 59.596 139.471 59.889 139.604 60.2653C140.143 59.4698 140.844 59.0721 141.708 59.0721C142.384 59.0721 142.904 59.2603 143.267 59.6366C143.631 60.0087 143.812 60.584 143.812 61.3623V66.0391H142.664V61.7473C142.664 61.2854 142.626 60.9539 142.549 60.7529C142.476 60.5476 142.341 60.3829 142.144 60.2589C141.948 60.1349 141.717 60.0729 141.452 60.0729C140.973 60.0729 140.575 60.2333 140.258 60.554C139.942 60.8705 139.784 61.3795 139.784 62.0809V66.0391H138.629V61.6125C138.629 61.0993 138.535 60.7144 138.347 60.4578C138.158 60.2012 137.85 60.0729 137.423 60.0729C137.098 60.0729 136.796 60.1584 136.518 60.3295C136.244 60.5006 136.046 60.7508 135.922 61.0801C135.798 61.4094 135.736 61.8841 135.736 62.5043V66.0391H134.581ZM145.095 62.6326C145.095 61.3709 145.446 60.4364 146.147 59.8291C146.733 59.3244 147.448 59.0721 148.29 59.0721C149.227 59.0721 149.992 59.38 150.587 59.9959C151.181 60.6075 151.479 61.4543 151.479 62.5363C151.479 63.4131 151.346 64.1038 151.081 64.6085C150.82 65.1089 150.437 65.498 149.932 65.776C149.432 66.054 148.885 66.193 148.29 66.193C147.336 66.193 146.564 65.8872 145.974 65.2756C145.388 64.6641 145.095 63.783 145.095 62.6326ZM146.282 62.6326C146.282 63.505 146.473 64.1594 146.853 64.5956C147.234 65.0276 147.713 65.2436 148.29 65.2436C148.863 65.2436 149.34 65.0255 149.721 64.5892C150.101 64.153 150.292 63.4879 150.292 62.5941C150.292 61.7515 150.099 61.1143 149.714 60.6823C149.334 60.2461 148.859 60.028 148.29 60.028C147.713 60.028 147.234 60.244 146.853 60.6759C146.473 61.1079 146.282 61.7601 146.282 62.6326ZM157.304 66.0391V65.0383C156.773 65.8081 156.053 66.193 155.142 66.193C154.74 66.193 154.363 66.116 154.013 65.9621C153.666 65.8081 153.407 65.6157 153.236 65.3847C153.07 65.1495 152.952 64.8629 152.883 64.5251C152.836 64.2984 152.813 63.9391 152.813 63.4473V59.2261H153.968V63.0046C153.968 63.6077 153.991 64.014 154.038 64.2235C154.111 64.5272 154.265 64.7667 154.5 64.9421C154.735 65.1131 155.026 65.1987 155.373 65.1987C155.719 65.1987 156.044 65.111 156.348 64.9356C156.651 64.756 156.865 64.5144 156.989 64.2107C157.118 63.9028 157.182 63.458 157.182 62.8763V59.2261H158.336V66.0391H157.304ZM162.044 66.0391L159.453 59.2261H160.672L162.134 63.3062C162.293 63.7467 162.438 64.2043 162.571 64.679C162.673 64.3198 162.816 63.8878 163 63.3831L164.514 59.2261H165.701L163.122 66.0391H162.044ZM171.385 63.845L172.578 63.9926C172.39 64.6897 172.042 65.2307 171.533 65.6157C171.024 66.0006 170.374 66.193 169.582 66.193C168.586 66.193 167.795 65.8872 167.209 65.2756C166.627 64.6598 166.336 63.798 166.336 62.6903C166.336 61.5441 166.631 60.6545 167.222 60.0216C167.812 59.3886 168.577 59.0721 169.518 59.0721C170.429 59.0721 171.173 59.3822 171.751 60.0023C172.328 60.6225 172.617 61.4949 172.617 62.6197C172.617 62.6882 172.615 62.7908 172.61 62.9277H167.53C167.572 63.6761 167.784 64.2492 168.165 64.647C168.545 65.0447 169.02 65.2436 169.589 65.2436C170.012 65.2436 170.374 65.1324 170.673 64.91C170.972 64.6876 171.21 64.3326 171.385 63.845ZM167.594 61.9782H171.398C171.347 61.4051 171.201 60.9753 170.962 60.6887C170.594 60.244 170.117 60.0216 169.531 60.0216C169.001 60.0216 168.554 60.199 168.19 60.554C167.831 60.909 167.632 61.3837 167.594 61.9782ZM174.035 66.0391V59.2261H175.067V60.1819C175.281 59.8483 175.566 59.581 175.921 59.38C176.276 59.1747 176.68 59.0721 177.133 59.0721C177.638 59.0721 178.051 59.1769 178.371 59.3864C178.696 59.596 178.925 59.889 179.058 60.2653C179.597 59.4698 180.298 59.0721 181.162 59.0721C181.838 59.0721 182.357 59.2603 182.721 59.6366C183.084 60.0087 183.266 60.584 183.266 61.3623V66.0391H182.118V61.7473C182.118 61.2854 182.079 60.9539 182.002 60.7529C181.93 60.5476 181.795 60.3829 181.598 60.2589C181.401 60.1349 181.17 60.0729 180.905 60.0729C180.426 60.0729 180.029 60.2333 179.712 60.554C179.396 60.8705 179.237 61.3795 179.237 62.0809V66.0391H178.083V61.6125C178.083 61.0993 177.989 60.7144 177.8 60.4578C177.612 60.2012 177.304 60.0729 176.877 60.0729C176.551 60.0729 176.25 60.1584 175.972 60.3295C175.698 60.5006 175.499 60.7508 175.375 61.0801C175.251 61.4094 175.189 61.8841 175.189 62.5043V66.0391H174.035ZM189.643 63.845L190.836 63.9926C190.648 64.6897 190.299 65.2307 189.79 65.6157C189.282 66.0006 188.631 66.193 187.84 66.193C186.844 66.193 186.052 65.8872 185.467 65.2756C184.885 64.6598 184.594 63.798 184.594 62.6903C184.594 61.5441 184.889 60.6545 185.479 60.0216C186.07 59.3886 186.835 59.0721 187.776 59.0721C188.687 59.0721 189.431 59.3822 190.009 60.0023C190.586 60.6225 190.875 61.4949 190.875 62.6197C190.875 62.6882 190.872 62.7908 190.868 62.9277H185.787C185.83 63.6761 186.042 64.2492 186.422 64.647C186.803 65.0447 187.278 65.2436 187.847 65.2436C188.27 65.2436 188.631 65.1324 188.931 64.91C189.23 64.6876 189.468 64.3326 189.643 63.845ZM185.851 61.9782H189.656C189.604 61.4051 189.459 60.9753 189.219 60.6887C188.852 60.244 188.375 60.0216 187.789 60.0216C187.259 60.0216 186.812 60.199 186.448 60.554C186.089 60.909 185.89 61.3837 185.851 61.9782ZM192.292 66.0391V59.2261H193.332V60.1948C193.832 59.4463 194.555 59.0721 195.5 59.0721C195.911 59.0721 196.287 59.1469 196.629 59.2966C196.976 59.442 197.234 59.6345 197.405 59.874C197.576 60.1135 197.696 60.3979 197.765 60.7272C197.807 60.9411 197.829 61.3153 197.829 61.8499V66.0391H196.674V61.8948C196.674 61.4244 196.629 61.0737 196.539 60.8427C196.449 60.6075 196.289 60.4214 196.058 60.2846C195.831 60.1434 195.564 60.0729 195.256 60.0729C194.764 60.0729 194.339 60.229 193.98 60.5412C193.625 60.8534 193.447 61.4457 193.447 62.3182V66.0391H192.292ZM202.127 65.0062L202.294 66.0262C201.969 66.0947 201.678 66.1289 201.421 66.1289C201.002 66.1289 200.677 66.0626 200.446 65.93C200.215 65.7974 200.053 65.6242 199.959 65.4104C199.865 65.1922 199.817 64.7368 199.817 64.0439V60.1242H198.971V59.2261H199.817V57.5389L200.966 56.846V59.2261H202.127V60.1242H200.966V64.1081C200.966 64.4374 200.985 64.6491 201.024 64.7432C201.066 64.8373 201.133 64.9121 201.222 64.9677C201.317 65.0233 201.449 65.0511 201.62 65.0511C201.748 65.0511 201.917 65.0361 202.127 65.0062Z" fill="#FDFDFD"/>
</svg>
