<svg width="131" height="45" viewBox="0 0 131 45" fill="none" xmlns="http://www.w3.org/2000/svg">
<path d="M79.019 27.9129C78.7827 27.9213 78.5887 27.578 78.6485 27.2522C79.4431 22.8176 80.6737 18.4013 82.9751 15.4012C85.6032 11.9909 89.5769 10.7648 93.2288 12.4394C97.6236 14.4571 100.195 20.0981 101.976 26.0233C102.07 26.3316 101.944 26.655 101.726 26.6676L79.019 27.9129Z" fill="#8FA378"/>
<path d="M1.17332 31.9029C0.988941 31.9029 0.812941 31.8107 0.645322 31.6263C0.477703 31.4587 0.377131 31.2827 0.343607 31.0983C0.343607 31.0815 0.561512 30.7379 0.997322 30.0674C1.41637 29.4137 1.97789 28.5505 2.68189 27.4777C3.40266 26.405 4.21561 25.1897 5.12075 23.832C6.02589 22.4743 6.95618 21.083 7.91161 19.6583C8.86704 18.2335 9.81408 16.8423 10.7528 15.4846C11.6914 14.1269 12.5379 12.92 13.2922 11.864C14.0465 10.7912 14.6667 9.93638 15.1528 9.29943C15.6556 8.64571 15.9573 8.31886 16.0579 8.31886C16.1249 8.31886 16.192 8.35238 16.259 8.41943C16.3428 8.46971 16.4099 8.53676 16.4602 8.62057C16.5272 8.70438 16.5775 8.78819 16.611 8.872C16.6613 8.95581 16.6865 9.02286 16.6865 9.07314C16.6865 9.0899 16.4937 9.38324 16.1082 9.95314C15.7394 10.523 15.2366 11.2773 14.5996 12.216C13.9794 13.1379 13.2587 14.2023 12.4373 15.4091C11.6328 16.5992 10.7947 17.8312 9.92304 19.1051C9.06818 20.3623 8.21332 21.611 7.35847 22.8514C6.52037 24.0918 5.74932 25.2232 5.04532 26.2457C4.34132 27.2514 3.74627 28.1063 3.26018 28.8103C2.77408 29.5143 2.45561 29.9585 2.30475 30.1429C2.3718 30.1429 2.68189 30.0507 3.23504 29.8663C3.80494 29.6819 4.61789 29.4724 5.67389 29.2377C6.07618 29.1539 6.47008 29.0617 6.85561 28.9611C7.25789 28.8773 7.6937 28.7935 8.16304 28.7097C8.63237 28.6427 9.14361 28.584 9.69675 28.5337C10.2667 28.4834 10.9204 28.4583 11.6579 28.4583C12.0602 28.4583 12.4289 28.4667 12.7642 28.4834C13.1162 28.517 13.4263 28.5672 13.6945 28.6343C13.9627 28.7181 14.1722 28.8354 14.323 28.9863C14.4739 29.1371 14.5493 29.3383 14.5493 29.5897C14.5493 29.7238 14.5326 29.8579 14.499 29.992C14.4655 30.1261 14.3985 30.2434 14.2979 30.344C14.147 30.344 14.0129 30.2686 13.8956 30.1177C13.7783 29.9669 13.6861 29.8076 13.619 29.64C13.5185 29.6065 13.376 29.573 13.1916 29.5394C13.0072 29.5227 12.6971 29.5143 12.2613 29.5143C10.6857 29.5143 8.98437 29.7322 7.15732 30.168C5.34704 30.6038 3.53675 31.1402 1.72646 31.7771C1.65942 31.8107 1.56723 31.8358 1.44989 31.8526C1.34932 31.8861 1.25713 31.9029 1.17332 31.9029ZM17.14 11.7886C17.2406 11.755 17.3914 11.6126 17.5926 11.3611C17.8105 11.1097 18.02 10.8248 18.2212 10.5063C18.4391 10.171 18.6234 9.84419 18.7743 9.52571C18.9252 9.20724 19.0006 8.96419 19.0006 8.79657C19.0174 8.77981 19.0593 8.77143 19.1263 8.77143C19.2939 8.77143 19.4783 8.83009 19.6794 8.94743C19.8806 9.048 20.0147 9.16533 20.0817 9.29943C20.0985 9.4 20.0314 9.59276 19.8806 9.87771C19.7465 10.1627 19.5789 10.4644 19.3777 10.7829C19.1934 11.0846 18.9922 11.3695 18.7743 11.6377C18.5732 11.8891 18.4139 12.0316 18.2966 12.0651C18.196 12.0987 18.0871 12.1154 17.9697 12.1154C17.7854 12.1154 17.6094 12.0903 17.4417 12.04C17.2741 11.9897 17.1735 11.9059 17.14 11.7886ZM22.9307 26.0446C22.9307 25.6255 23.0313 25.1562 23.2324 24.6366C23.4336 24.1002 23.7018 23.5638 24.037 23.0274C24.389 22.4743 24.7829 21.9463 25.2187 21.4434C25.6713 20.9238 26.1323 20.4629 26.6016 20.0606C27.0877 19.6415 27.5738 19.3147 28.0599 19.08C28.546 18.8286 28.9985 18.7029 29.4176 18.7029C29.8199 18.7029 30.1467 18.7783 30.3982 18.9291C30.6664 19.08 30.9429 19.2979 31.2279 19.5829C31.2614 19.5661 31.3201 19.5326 31.4039 19.4823C31.5044 19.4152 31.6134 19.3566 31.7307 19.3063C31.8481 19.2392 31.9486 19.189 32.0324 19.1554C32.133 19.1051 32.2001 19.08 32.2336 19.08C32.418 19.08 32.5856 19.1722 32.7364 19.3566C32.9041 19.5242 32.9879 19.7002 32.9879 19.8846V19.96C32.6862 20.2785 32.3509 20.6556 31.9822 21.0914C31.6134 21.5272 31.2446 21.9882 30.8759 22.4743C30.5239 22.9436 30.1886 23.413 29.8702 23.8823C29.5517 24.3349 29.2835 24.7539 29.0656 25.1394C28.8477 25.5082 28.6968 25.8099 28.613 26.0446C28.546 26.2625 28.5795 26.3714 28.7136 26.3714C28.8477 26.3714 29.0656 26.296 29.3673 26.1451C29.6858 25.9943 30.0462 25.8015 30.4484 25.5669C30.8675 25.3154 31.3033 25.0389 31.7559 24.7371C32.2252 24.4354 32.6778 24.1421 33.1136 23.8571C33.5494 23.5554 33.9349 23.2789 34.2702 23.0274C34.6222 22.776 34.8904 22.5665 35.0747 22.3989C35.125 22.3653 35.2005 22.2983 35.301 22.1977C35.4184 22.0804 35.5357 21.963 35.653 21.8457C35.7871 21.7284 35.9045 21.6278 36.005 21.544C36.1056 21.4434 36.1726 21.3931 36.2062 21.3931C36.3905 21.3931 36.5665 21.4686 36.7342 21.6194C36.9185 21.7535 37.0107 21.9128 37.0107 22.0971C37.0107 22.3318 36.8347 22.6335 36.4827 23.0023C36.1307 23.3543 35.6782 23.7398 35.125 24.1589C34.5719 24.5779 33.9601 24.997 33.2896 25.416C32.6191 25.835 31.9654 26.2206 31.3284 26.5726C30.6915 26.9078 30.1132 27.176 29.5936 27.3771C29.074 27.595 28.6968 27.704 28.4622 27.704C28.1772 27.704 27.9258 27.5615 27.7079 27.2766C27.5067 26.9916 27.4062 26.7067 27.4062 26.4217C27.4062 26.2373 27.4481 26.0027 27.5319 25.7177C27.6157 25.416 27.7246 25.1478 27.8587 24.9131C27.6073 25.0808 27.3056 25.307 26.9536 25.592C26.6184 25.8602 26.2664 26.1284 25.8976 26.3966C25.5456 26.648 25.2104 26.8659 24.8919 27.0503C24.5734 27.2347 24.322 27.3269 24.1376 27.3269C23.9867 27.3269 23.8359 27.285 23.685 27.2011C23.5509 27.1341 23.4252 27.0419 23.3079 26.9246C23.2073 26.7905 23.1151 26.648 23.0313 26.4971C22.9643 26.3463 22.9307 26.1954 22.9307 26.0446ZM24.3136 25.8686C24.4142 25.8686 24.6321 25.7512 24.9673 25.5166C25.3193 25.2819 25.7132 24.9886 26.149 24.6366C26.6016 24.2678 27.0709 23.8655 27.557 23.4297C28.0599 22.9939 28.5124 22.5665 28.9147 22.1474C29.3338 21.7284 29.6774 21.3429 29.9456 20.9909C30.2138 20.6389 30.3479 20.3707 30.3479 20.1863C30.3479 20.0354 30.2724 19.9516 30.1216 19.9349C29.9707 19.9013 29.8618 19.8846 29.7947 19.8846C29.5098 19.8846 29.1745 19.9935 28.789 20.2114C28.4035 20.4293 28.0096 20.7143 27.6073 21.0663C27.205 21.4183 26.8027 21.8206 26.4004 22.2731C26.0149 22.709 25.6629 23.1531 25.3444 23.6057C25.0427 24.0415 24.7913 24.4606 24.5902 24.8629C24.4058 25.2651 24.3136 25.6004 24.3136 25.8686ZM32.0509 29.9669C32.0006 29.0785 32.2102 28.1063 32.6795 27.0503C33.1488 26.011 33.7271 24.9718 34.4143 23.9326C35.1016 22.8766 35.814 21.8709 36.5515 20.9154C37.3058 19.96 37.9427 19.1387 38.4623 18.4514L38.7641 18.0743H35.6463C35.3614 18.0743 35.0764 18.0827 34.7915 18.0994C34.5065 18.1162 34.2216 18.1246 33.9366 18.1246C33.8528 18.0408 33.769 17.9402 33.6852 17.8229C33.6014 17.6888 33.5595 17.5379 33.5595 17.3703C33.5595 17.1691 33.6265 17.0015 33.7606 16.8674C34.1462 16.8507 34.5317 16.8423 34.9172 16.8423C35.3195 16.8423 35.7218 16.8423 36.1241 16.8423C36.5096 16.8423 36.8951 16.8423 37.2806 16.8423C37.6829 16.8423 38.0768 16.8339 38.4623 16.8171C38.7305 16.7836 38.9903 16.7669 39.2418 16.7669C39.4932 16.7501 39.7362 16.7333 39.9709 16.7166C40.3229 16.3646 40.6833 15.9623 41.0521 15.5097C41.4376 15.0571 41.8063 14.613 42.1583 14.1771C42.5103 13.7413 42.8288 13.3474 43.1138 12.9954C43.4155 12.6267 43.6669 12.3669 43.8681 12.216H43.9938C44.1279 12.216 44.2536 12.3082 44.3709 12.4926C44.505 12.677 44.5721 12.8362 44.5721 12.9703C44.5888 13.1379 44.4966 13.381 44.2955 13.6994C44.0943 14.0179 43.8513 14.3615 43.5663 14.7303C43.2814 15.0823 42.9797 15.4343 42.6612 15.7863C42.3595 16.1383 42.0913 16.4316 41.8566 16.6663H42.2086C42.4768 16.6663 42.7534 16.683 43.0383 16.7166C43.3233 16.7333 43.5831 16.7836 43.8178 16.8674C44.0524 16.9345 44.2452 17.0434 44.3961 17.1943C44.5469 17.3284 44.6223 17.5128 44.6223 17.7474C44.6223 17.8145 44.614 17.9067 44.5972 18.024C44.5804 18.1413 44.5302 18.2 44.4463 18.2H44.1949C44.0608 18.1162 43.8178 18.0575 43.4658 18.024C43.1138 17.9905 42.745 17.9737 42.3595 17.9737C42.0745 17.9737 41.8063 17.9821 41.5549 17.9989C41.3035 17.9989 41.1107 17.9989 40.9766 17.9989H40.7252L40.3481 18.4514C40.0296 18.7699 39.6273 19.2225 39.1412 19.8091C38.6719 20.379 38.169 21.0244 37.6326 21.7451C37.113 22.4491 36.5934 23.2034 36.0738 24.008C35.5542 24.7958 35.0848 25.5752 34.6658 26.3463C34.2467 27.1173 33.9115 27.8381 33.6601 28.5086C33.4086 29.1958 33.2913 29.7825 33.3081 30.2686C33.3081 30.3691 33.3416 30.4865 33.4086 30.6206C33.4757 30.7547 33.4589 30.872 33.3583 30.9726C33.3081 31.0229 33.2494 31.048 33.1823 31.048C32.8974 31.048 32.6376 30.939 32.4029 30.7211C32.1682 30.52 32.0509 30.2686 32.0509 29.9669ZM40.0377 25.24C40.0377 24.536 40.2472 23.7985 40.6663 23.0274C41.0853 22.2564 41.6133 21.5524 42.2503 20.9154C42.8872 20.2617 43.5912 19.7337 44.3623 19.3314C45.1333 18.9124 45.8708 18.7029 46.5748 18.7029C47.0777 18.7029 47.4213 18.8872 47.6057 19.256C47.8068 19.608 47.9074 19.9851 47.9074 20.3874C47.9074 20.8568 47.6895 21.3261 47.2537 21.7954C46.8179 22.248 46.2899 22.6503 45.6697 23.0023C45.0495 23.3543 44.4042 23.6392 43.7337 23.8571C43.0632 24.075 42.4933 24.184 42.024 24.184C41.9402 24.184 41.8564 24.184 41.7726 24.184C41.6887 24.184 41.6133 24.1672 41.5463 24.1337C41.496 24.2343 41.4457 24.36 41.3954 24.5109C41.3451 24.645 41.2948 24.7874 41.2446 24.9383C41.211 25.0891 41.1775 25.2316 41.144 25.3657C41.1272 25.4998 41.1188 25.6004 41.1188 25.6674C41.1188 26.2206 41.4122 26.4971 41.9988 26.4971C42.4849 26.4971 43.0632 26.3714 43.7337 26.12C44.4209 25.8686 45.1333 25.5585 45.8708 25.1897C46.6251 24.8042 47.371 24.3935 48.1086 23.9577C48.8461 23.5051 49.5082 23.0945 50.0948 22.7257C50.6815 22.3402 51.1676 22.0217 51.5531 21.7703C51.9387 21.5189 52.1482 21.3931 52.1817 21.3931C52.3661 21.3931 52.5588 21.4686 52.76 21.6194C52.9611 21.7535 53.0617 21.9295 53.0617 22.1474C53.0617 22.2648 52.8522 22.4827 52.4331 22.8011C52.0308 23.1196 51.5028 23.48 50.8491 23.8823C50.1954 24.2846 49.4663 24.7036 48.6617 25.1394C47.8739 25.5752 47.0861 25.9775 46.2983 26.3463C45.5105 26.6983 44.7729 26.9916 44.0857 27.2263C43.4152 27.461 42.8788 27.5783 42.4766 27.5783C42.2084 27.5783 41.9234 27.5196 41.6217 27.4023C41.3367 27.285 41.0769 27.1257 40.8423 26.9246C40.6076 26.7234 40.4148 26.4804 40.264 26.1954C40.1131 25.9105 40.0377 25.592 40.0377 25.24ZM42.1748 23.0274H42.3257C42.6945 23.0274 43.08 22.952 43.4823 22.8011C43.9013 22.6335 44.3036 22.4324 44.6891 22.1977C45.0747 21.963 45.435 21.7116 45.7703 21.4434C46.1055 21.1585 46.3737 20.8987 46.5748 20.664C46.7927 20.4293 46.9268 20.2366 46.9771 20.0857C47.0442 19.9181 46.9939 19.8343 46.8263 19.8343C46.3905 19.8343 45.9547 19.9265 45.5188 20.1109C45.083 20.2785 44.664 20.5048 44.2617 20.7897C43.8594 21.0579 43.4907 21.368 43.1554 21.72C42.8202 22.072 42.5352 22.424 42.3006 22.776L42.1748 23.0274ZM51.8067 27.88C51.2368 27.88 50.7926 27.7291 50.4741 27.4274C50.1557 27.1257 49.9964 26.6899 49.9964 26.12C49.9964 25.5166 50.2143 24.7623 50.6501 23.8571C51.1027 22.9352 51.681 21.9547 52.385 20.9154C53.089 19.8594 53.8768 18.7783 54.7484 17.672C55.62 16.549 56.4833 15.4846 57.3381 14.4789C58.2098 13.4731 59.0227 12.568 59.777 11.7634C60.5313 10.9589 61.1431 10.3387 61.6124 9.90286C61.7968 9.93638 61.9561 10.037 62.0901 10.2046C62.241 10.3554 62.3164 10.523 62.3164 10.7074C62.3164 10.7745 62.1488 11.0175 61.8136 11.4366C61.4951 11.8389 61.0677 12.3669 60.5313 13.0206C60.0117 13.6575 59.4082 14.3867 58.721 15.208C58.0505 16.0293 57.3633 16.8842 56.6593 17.7726C55.9553 18.6442 55.2597 19.5242 54.5724 20.4126C53.902 21.301 53.2985 22.139 52.7621 22.9269C52.2425 23.6979 51.8151 24.3935 51.4799 25.0137C51.1614 25.6171 51.0021 26.0865 51.0021 26.4217C51.0021 26.7234 51.1446 26.8743 51.4296 26.8743C51.6475 26.8743 51.9492 26.7737 52.3347 26.5726C52.7202 26.3547 53.1477 26.0781 53.617 25.7429C54.1031 25.4076 54.6143 25.0305 55.1507 24.6114C55.6871 24.1756 56.2151 23.7482 56.7347 23.3291C57.2711 22.9101 57.7823 22.5078 58.2684 22.1223C58.7545 21.7368 59.182 21.4099 59.5507 21.1417C59.7016 21.1752 59.8608 21.2758 60.0284 21.4434C60.2128 21.611 60.305 21.787 60.305 21.9714C60.305 22.1223 60.1206 22.3737 59.7519 22.7257C59.3999 23.061 58.9389 23.4549 58.369 23.9074C57.7991 24.3432 57.1789 24.7958 56.5084 25.2651C55.838 25.7345 55.1842 26.1619 54.5473 26.5474C53.9103 26.933 53.3404 27.2514 52.8376 27.5029C52.3515 27.7543 52.0079 27.88 51.8067 27.88ZM58.1718 27.88C57.9874 27.88 57.7863 27.8465 57.5684 27.7794C57.3505 27.7291 57.1493 27.637 56.9649 27.5029C56.7805 27.3855 56.6297 27.2263 56.5124 27.0251C56.395 26.8408 56.3364 26.6229 56.3364 26.3714C56.3364 26.12 56.4202 25.8183 56.5878 25.4663C56.7554 25.0975 56.9649 24.7036 57.2164 24.2846C57.4845 23.8655 57.7779 23.4381 58.0964 23.0023C58.4148 22.5497 58.7333 22.1307 59.0518 21.7451C59.3703 21.3429 59.6636 20.9909 59.9318 20.6891C60.2167 20.3707 60.443 20.1276 60.6106 19.96H60.6861C60.8369 19.96 61.0045 20.0438 61.1889 20.2114C61.3901 20.3623 61.4906 20.5299 61.4906 20.7143C61.4906 20.7143 61.3733 20.8735 61.1386 21.192C60.904 21.4937 60.619 21.8792 60.2838 22.3486C59.9485 22.8011 59.5965 23.2956 59.2278 23.832C58.859 24.3516 58.5322 24.8377 58.2472 25.2903C57.9623 25.7429 57.7611 26.12 57.6438 26.4217C57.5265 26.7234 57.5516 26.8743 57.7192 26.8743C58.3729 26.8743 59.0518 26.7067 59.7558 26.3714C60.4598 26.0194 61.1806 25.5836 61.9181 25.064C62.6556 24.5276 63.3931 23.941 64.1306 23.304C64.8849 22.6503 65.6225 22.0133 66.3432 21.3931C66.36 21.3764 66.3935 21.368 66.4438 21.368C66.5779 21.368 66.7287 21.4518 66.8964 21.6194C67.064 21.787 67.1478 21.963 67.1478 22.1474C67.1478 22.2983 66.9802 22.5413 66.6449 22.8766C66.3097 23.2118 65.8739 23.5973 65.3375 24.0331C64.8179 24.4522 64.2228 24.888 63.5524 25.3406C62.8819 25.7931 62.2114 26.2122 61.5409 26.5977C60.8872 26.9665 60.2586 27.2682 59.6552 27.5029C59.0685 27.7543 58.5741 27.88 58.1718 27.88ZM62.1192 19.0046C61.9851 19.0046 61.851 18.9375 61.7169 18.8034C61.5996 18.6693 61.5912 18.5101 61.6918 18.3257C61.7588 18.2084 61.8762 18.0408 62.0438 17.8229C62.2114 17.5882 62.3874 17.3535 62.5718 17.1189C62.7729 16.8842 62.9657 16.6663 63.1501 16.4651C63.3345 16.264 63.4769 16.1299 63.5775 16.0629C63.7284 16.0629 63.8876 16.1383 64.0552 16.2891C64.2396 16.4232 64.3318 16.5741 64.3318 16.7417C64.3486 16.8423 64.2731 17.0099 64.1055 17.2446C63.9379 17.4625 63.7367 17.6971 63.5021 17.9486C63.2842 18.2 63.0663 18.4263 62.8484 18.6274C62.6305 18.8286 62.4712 18.9543 62.3706 19.0046H62.1192ZM64.5913 25.24C64.5913 24.536 64.8008 23.7985 65.2198 23.0274C65.6389 22.2564 66.1669 21.5524 66.8038 20.9154C67.4408 20.2617 68.1448 19.7337 68.9158 19.3314C69.6869 18.9124 70.4244 18.7029 71.1284 18.7029C71.6313 18.7029 71.9749 18.8872 72.1593 19.256C72.3604 19.608 72.461 19.9851 72.461 20.3874C72.461 20.8568 72.2431 21.3261 71.8073 21.7954C71.3715 22.248 70.8435 22.6503 70.2233 23.0023C69.6031 23.3543 68.9577 23.6392 68.2873 23.8571C67.6168 24.075 67.0469 24.184 66.5776 24.184C66.4937 24.184 66.4099 24.184 66.3261 24.184C66.2423 24.184 66.1669 24.1672 66.0998 24.1337C66.0496 24.2343 65.9993 24.36 65.949 24.5109C65.8987 24.645 65.8484 24.7874 65.7981 24.9383C65.7646 25.0891 65.7311 25.2316 65.6976 25.3657C65.6808 25.4998 65.6724 25.6004 65.6724 25.6674C65.6724 26.2206 65.9657 26.4971 66.5524 26.4971C67.0385 26.4971 67.6168 26.3714 68.2873 26.12C68.9745 25.8686 69.6869 25.5585 70.4244 25.1897C71.1787 24.8042 71.9246 24.3935 72.6621 23.9577C73.3997 23.5051 74.0617 23.0945 74.6484 22.7257C75.2351 22.3402 75.7212 22.0217 76.1067 21.7703C76.4922 21.5189 76.7017 21.3931 76.7353 21.3931C76.9197 21.3931 77.1124 21.4686 77.3136 21.6194C77.5147 21.7535 77.6153 21.9295 77.6153 22.1474C77.6153 22.2648 77.4057 22.4827 76.9867 22.8011C76.5844 23.1196 76.0564 23.48 75.4027 23.8823C74.749 24.2846 74.0198 24.7036 73.2153 25.1394C72.4275 25.5752 71.6397 25.9775 70.8518 26.3463C70.064 26.6983 69.3265 26.9916 68.6393 27.2263C67.9688 27.461 67.4324 27.5783 67.0301 27.5783C66.7619 27.5783 66.477 27.5196 66.1753 27.4023C65.8903 27.285 65.6305 27.1257 65.3958 26.9246C65.1612 26.7234 64.9684 26.4804 64.8176 26.1954C64.6667 25.9105 64.5913 25.592 64.5913 25.24ZM66.7284 23.0274H66.8793C67.248 23.0274 67.6336 22.952 68.0358 22.8011C68.4549 22.6335 68.8572 22.4324 69.2427 22.1977C69.6282 21.963 69.9886 21.7116 70.3238 21.4434C70.6591 21.1585 70.9273 20.8987 71.1284 20.664C71.3463 20.4293 71.4804 20.2366 71.5307 20.0857C71.5977 19.9181 71.5475 19.8343 71.3798 19.8343C70.944 19.8343 70.5082 19.9265 70.0724 20.1109C69.6366 20.2785 69.2176 20.5048 68.8153 20.7897C68.413 21.0579 68.0442 21.368 67.709 21.72C67.3737 22.072 67.0888 22.424 66.8541 22.776L66.7284 23.0274ZM74.0974 27.2011C73.9969 27.1676 73.8795 27.0922 73.7454 26.9749C73.5946 26.8575 73.5191 26.715 73.5191 26.5474C73.5191 26.4133 73.6197 26.1703 73.8209 25.8183C74.0052 25.4495 74.2399 25.0305 74.5249 24.5611C74.8266 24.075 75.1534 23.5722 75.5054 23.0526C75.8742 22.533 76.2262 22.0469 76.5614 21.5943C76.8967 21.1417 77.1984 20.7562 77.4666 20.4377C77.7515 20.1192 77.9527 19.9349 78.07 19.8846C78.2209 19.8846 78.3717 19.9851 78.5226 20.1863C78.6734 20.3707 78.7489 20.5467 78.7489 20.7143C78.4136 21.2171 78.0951 21.653 77.7934 22.0217C77.5085 22.3905 77.366 22.6251 77.366 22.7257C77.3828 22.7257 77.5169 22.6251 77.7683 22.424C78.0365 22.2061 78.3633 21.9463 78.7489 21.6446C79.1344 21.3261 79.5534 20.9825 80.006 20.6137C80.4753 20.245 80.9111 19.9097 81.3134 19.608C81.7325 19.2895 82.1012 19.0297 82.4197 18.8286C82.755 18.6107 82.9812 18.5017 83.0986 18.5017C83.283 18.5017 83.459 18.6023 83.6266 18.8034C83.811 19.0046 83.9031 19.2225 83.9031 19.4571C83.9031 19.5745 83.8612 19.7421 83.7774 19.96C83.7104 20.1779 83.6266 20.4042 83.526 20.6389C83.4254 20.8735 83.3249 21.1082 83.2243 21.3429C83.1237 21.5608 83.0399 21.7451 82.9729 21.896C83.0567 21.963 83.1572 22.0971 83.2746 22.2983C83.4087 22.4827 83.4757 22.6251 83.4757 22.7257C83.4757 22.9269 83.3668 23.0274 83.1489 23.0274C82.7466 23.0274 82.4449 22.8682 82.2437 22.5497C82.0593 22.2145 81.9671 21.8709 81.9671 21.5189C81.9671 21.435 81.9671 21.3596 81.9671 21.2926C81.9671 21.2088 81.9839 21.1166 82.0174 21.016C81.3134 21.4183 80.643 21.8122 80.006 22.1977C79.3691 22.5832 78.7572 22.9939 78.1706 23.4297C77.6007 23.8655 77.0475 24.36 76.5111 24.9131C75.9748 25.4495 75.4468 26.0781 74.9271 26.7989C74.8601 26.8994 74.7679 26.9832 74.6506 27.0503C74.55 27.1173 74.4494 27.1844 74.3489 27.2514L74.0974 27.2011ZM96.2367 27.6286C96.1361 27.6286 96.0272 27.5783 95.9098 27.4777C95.8093 27.3939 95.7255 27.3185 95.6584 27.2514L95.5327 26.9246C95.5327 26.757 95.65 26.4385 95.8847 25.9691C96.1361 25.4998 96.4546 24.955 96.8401 24.3349C97.2257 23.7147 97.6447 23.0526 98.0973 22.3486C98.5666 21.6446 99.0108 20.9825 99.4298 20.3623C99.8657 19.7253 100.251 19.1638 100.586 18.6777C100.938 18.1749 101.181 17.8229 101.316 17.6217L99.0527 18.7531C99.0192 18.8034 98.9354 18.8286 98.8013 18.8286C98.6672 18.8286 98.5582 18.7364 98.4744 18.552C98.3906 18.3676 98.3319 18.2251 98.2984 18.1246V17.8229C98.399 17.7726 98.5666 17.6804 98.8013 17.5463C99.0527 17.3954 99.3377 17.2278 99.6561 17.0434C99.9746 16.859 100.31 16.6663 100.662 16.4651C101.014 16.264 101.332 16.088 101.617 15.9371C101.919 15.7695 102.179 15.6354 102.397 15.5349C102.615 15.4175 102.74 15.3589 102.774 15.3589C102.992 15.3589 103.176 15.4762 103.327 15.7109C103.495 15.9288 103.578 16.1299 103.578 16.3143C103.595 16.3981 103.486 16.6411 103.252 17.0434C103.034 17.429 102.749 17.8983 102.397 18.4514C102.061 18.9878 101.676 19.5745 101.24 20.2114C100.821 20.8484 100.41 21.4602 100.008 22.0469C99.6226 22.6168 99.2706 23.128 98.9521 23.5806C98.6504 24.0331 98.4325 24.3516 98.2984 24.536C98.2314 24.6533 98.0973 24.888 97.8961 25.24C97.7118 25.5752 97.5106 25.9189 97.2927 26.2709C97.0748 26.6229 96.8653 26.933 96.6641 27.2011C96.4798 27.4861 96.3373 27.6286 96.2367 27.6286ZM103.464 28.0057C103.062 28.0057 102.71 27.9219 102.408 27.7543C102.124 27.5867 101.889 27.3688 101.704 27.1006C101.537 26.8324 101.411 26.5307 101.327 26.1954C101.244 25.8602 101.202 25.5166 101.202 25.1646C101.202 24.427 101.369 23.6811 101.704 22.9269C102.04 22.1558 102.45 21.4099 102.936 20.6891C103.423 19.9684 103.951 19.2811 104.52 18.6274C105.09 17.9737 105.602 17.387 106.054 16.8674C105.92 16.7166 105.878 16.549 105.928 16.3646C105.979 16.1634 106.079 16.021 106.23 15.9371C106.297 15.9371 106.373 15.9288 106.456 15.912C106.54 15.8785 106.616 15.8617 106.683 15.8617C107.655 15.8617 108.426 16.1718 108.996 16.792C109.583 17.3954 109.876 18.1749 109.876 19.1303C109.876 19.5661 109.792 20.0941 109.624 20.7143C109.474 21.3177 109.256 21.9463 108.971 22.6C108.686 23.2537 108.342 23.9074 107.94 24.5611C107.538 25.1981 107.102 25.7764 106.632 26.296C106.163 26.7989 105.66 27.2095 105.124 27.528C104.588 27.8465 104.034 28.0057 103.464 28.0057ZM102.962 27C103.431 27 103.9 26.8491 104.37 26.5474C104.839 26.2457 105.283 25.8518 105.702 25.3657C106.138 24.8796 106.54 24.3349 106.909 23.7314C107.278 23.1112 107.596 22.491 107.864 21.8709C108.149 21.2507 108.367 20.6556 108.518 20.0857C108.669 19.5158 108.744 19.0297 108.744 18.6274C108.744 18.3425 108.703 18.0659 108.619 17.7977C108.535 17.5295 108.367 17.3032 108.116 17.1189C108.049 17.1859 107.94 17.3032 107.789 17.4709C107.638 17.6217 107.487 17.781 107.336 17.9486C107.186 18.1162 107.043 18.267 106.909 18.4011C106.775 18.5185 106.674 18.5771 106.607 18.5771C106.373 18.5771 106.104 18.7196 105.803 19.0046C105.518 19.2728 105.216 19.6331 104.898 20.0857C104.596 20.5215 104.294 21.016 103.992 21.5691C103.691 22.1223 103.423 22.667 103.188 23.2034C102.953 23.7398 102.76 24.2427 102.61 24.712C102.476 25.1646 102.408 25.525 102.408 25.7931C102.408 25.9105 102.408 26.0362 102.408 26.1703C102.425 26.3044 102.45 26.4385 102.484 26.5726C102.517 26.6899 102.568 26.7905 102.635 26.8743C102.719 26.9581 102.828 27 102.962 27ZM117.061 24.2343C117.061 24.8377 116.935 25.3909 116.684 25.8937C116.433 26.3798 116.097 26.7905 115.678 27.1257C115.259 27.4777 114.765 27.7459 114.195 27.9303C113.642 28.1147 113.047 28.2069 112.41 28.2069C112.141 28.2069 111.815 28.1817 111.429 28.1314C111.06 28.0811 110.7 27.989 110.348 27.8549C110.013 27.7208 109.728 27.5364 109.493 27.3017C109.242 27.0838 109.116 26.7905 109.116 26.4217C109.116 26.2373 109.158 26.0446 109.242 25.8434C109.325 25.6423 109.409 25.4579 109.493 25.2903C109.627 25.2903 109.795 25.349 109.996 25.4663C110.214 25.5669 110.323 25.701 110.323 25.8686C110.323 26.0027 110.289 26.12 110.222 26.2206C110.172 26.3044 110.147 26.4133 110.147 26.5474C110.147 26.6815 110.222 26.7905 110.373 26.8743C110.524 26.9581 110.692 27.0251 110.876 27.0754C111.077 27.1257 111.27 27.1592 111.454 27.176C111.655 27.1928 111.806 27.2011 111.907 27.2011C112.443 27.2011 112.954 27.1257 113.441 26.9749C113.927 26.824 114.354 26.6145 114.723 26.3463C115.092 26.0781 115.385 25.768 115.603 25.416C115.821 25.064 115.93 24.6785 115.93 24.2594C115.93 23.8069 115.804 23.4465 115.553 23.1783C115.301 22.9101 114.991 22.6922 114.622 22.5246C114.253 22.357 113.851 22.2229 113.415 22.1223C112.98 22.005 112.577 21.8792 112.209 21.7451C111.84 21.611 111.53 21.4434 111.278 21.2423C111.027 21.0244 110.901 20.7227 110.901 20.3371C110.901 20.0522 111.002 19.7589 111.203 19.4571C111.421 19.1554 111.655 18.8705 111.907 18.6023C112.175 18.3173 112.418 18.0575 112.636 17.8229C112.871 17.5882 113.005 17.3954 113.038 17.2446C112.988 17.1943 112.904 17.1691 112.787 17.1691C112.686 17.1524 112.586 17.1356 112.485 17.1189C112.385 17.0853 112.292 17.0434 112.209 16.9931C112.125 16.9429 112.083 16.859 112.083 16.7417V16.5657C112.183 16.4819 112.317 16.4149 112.485 16.3646C112.653 16.2975 112.829 16.2472 113.013 16.2137C113.197 16.1634 113.382 16.1215 113.566 16.088C113.767 16.0545 113.927 16.021 114.044 15.9874C114.161 15.7528 114.354 15.5349 114.622 15.3337C114.89 15.1158 115.167 15.0069 115.452 15.0069C115.586 15.0069 115.703 15.0488 115.804 15.1326C115.921 15.1996 115.963 15.3002 115.93 15.4343C115.93 15.5684 115.888 15.6941 115.804 15.8114C115.72 15.9288 115.636 16.0293 115.553 16.1131C115.67 16.1131 115.812 16.1131 115.98 16.1131C116.164 16.0964 116.365 16.088 116.583 16.088C116.885 16.088 117.204 16.1048 117.539 16.1383C117.891 16.155 118.209 16.2137 118.494 16.3143C118.796 16.3981 119.039 16.5238 119.223 16.6914C119.408 16.8423 119.5 17.0518 119.5 17.32C119.5 17.3535 119.492 17.387 119.475 17.4206C119.458 17.4373 119.45 17.4625 119.45 17.496L119.198 17.6971C118.846 17.4625 118.503 17.32 118.167 17.2697C117.832 17.2194 117.463 17.1943 117.061 17.1943H114.798C114.362 17.781 113.885 18.3341 113.365 18.8537C112.845 19.3733 112.376 19.9516 111.957 20.5886C112.209 20.6724 112.51 20.7478 112.862 20.8149C113.214 20.8819 113.575 20.9657 113.943 21.0663C114.329 21.1501 114.706 21.2674 115.075 21.4183C115.444 21.5691 115.77 21.7703 116.055 22.0217C116.357 22.2564 116.6 22.5581 116.785 22.9269C116.969 23.2789 117.061 23.7147 117.061 24.2343Z" fill="#181D27"/>
<path d="M28.078 42.4688V36.4695H28.8719V41.7608H31.8265V42.4688H28.078ZM35.5177 41.9327C35.2449 42.1646 34.9817 42.3282 34.7279 42.4237C34.4769 42.5192 34.2069 42.567 33.9177 42.567C33.4402 42.567 33.0733 42.451 32.8169 42.2191C32.5604 41.9845 32.4322 41.6858 32.4322 41.3229C32.4322 41.1101 32.4799 40.9164 32.5754 40.7418C32.6736 40.5645 32.8005 40.4226 32.956 40.3162C33.1142 40.2098 33.2916 40.1293 33.488 40.0748C33.6326 40.0366 33.8508 39.9998 34.1427 39.9643C34.7375 39.8934 35.1754 39.8088 35.4564 39.7106C35.4591 39.6096 35.4605 39.5455 35.4605 39.5182C35.4605 39.2181 35.3909 39.0067 35.2517 38.8839C35.0635 38.7175 34.7839 38.6343 34.4128 38.6343C34.0664 38.6343 33.8099 38.6957 33.6435 38.8185C33.4798 38.9385 33.3584 39.1527 33.2793 39.4609L32.559 39.3627C32.6245 39.0544 32.7323 38.8062 32.8823 38.6179C33.0324 38.427 33.2493 38.281 33.533 38.1801C33.8167 38.0764 34.1455 38.0246 34.5192 38.0246C34.8903 38.0246 35.1917 38.0682 35.4236 38.1555C35.6555 38.2428 35.826 38.3533 35.9352 38.487C36.0443 38.6179 36.1207 38.7843 36.1643 38.9862C36.1889 39.1117 36.2012 39.3382 36.2012 39.6656V40.6477C36.2012 41.3325 36.2162 41.7662 36.2462 41.949C36.2789 42.1291 36.3417 42.3023 36.4344 42.4688H35.6651C35.5887 42.316 35.5396 42.1373 35.5177 41.9327ZM35.4564 40.2876C35.189 40.3967 34.788 40.4895 34.2532 40.5658C33.9504 40.6095 33.7362 40.6586 33.6108 40.7132C33.4853 40.7677 33.3884 40.8482 33.3202 40.9546C33.252 41.0583 33.2179 41.1742 33.2179 41.3025C33.2179 41.4989 33.2916 41.6626 33.4389 41.7935C33.5889 41.9245 33.8072 41.99 34.0936 41.99C34.3774 41.99 34.6297 41.9286 34.8507 41.8058C35.0717 41.6803 35.234 41.5098 35.3377 41.2943C35.4168 41.1279 35.4564 40.8823 35.4564 40.5577V40.2876ZM39.3849 41.1715L40.1134 41.0569C40.1543 41.3488 40.2675 41.5725 40.453 41.7281C40.6413 41.8836 40.9032 41.9613 41.2387 41.9613C41.577 41.9613 41.828 41.8931 41.9917 41.7567C42.1554 41.6176 42.2372 41.4552 42.2372 41.2697C42.2372 41.1033 42.1649 40.9723 42.0203 40.8769C41.9194 40.8114 41.6684 40.7282 41.2674 40.6272C40.7272 40.4908 40.3521 40.3735 40.142 40.2753C39.9347 40.1744 39.7764 40.0366 39.6673 39.862C39.5609 39.6846 39.5077 39.4896 39.5077 39.2768C39.5077 39.0831 39.5514 38.9044 39.6387 38.7407C39.7287 38.5743 39.8501 38.4365 40.0029 38.3274C40.1174 38.2428 40.273 38.1719 40.4694 38.1146C40.6685 38.0546 40.8813 38.0246 41.1078 38.0246C41.4488 38.0246 41.7475 38.0737 42.004 38.1719C42.2632 38.2701 42.4541 38.4038 42.5769 38.5729C42.6997 38.7393 42.7842 38.963 42.8306 39.244L42.1104 39.3423C42.0776 39.1186 41.9822 38.9439 41.8239 38.8185C41.6684 38.693 41.4474 38.6302 41.161 38.6302C40.8227 38.6302 40.5812 38.6861 40.4366 38.798C40.292 38.9098 40.2198 39.0408 40.2198 39.1908C40.2198 39.2863 40.2498 39.3723 40.3098 39.4487C40.3698 39.5278 40.4639 39.5933 40.5921 39.6451C40.6658 39.6724 40.8827 39.7351 41.2428 39.8333C41.7639 39.9725 42.1267 40.0871 42.3314 40.1771C42.5387 40.2644 42.701 40.3926 42.8183 40.5618C42.9357 40.7309 42.9943 40.941 42.9943 41.192C42.9943 41.4375 42.922 41.6694 42.7774 41.8876C42.6356 42.1032 42.4296 42.271 42.1595 42.391C41.8894 42.5083 41.5838 42.567 41.2428 42.567C40.6781 42.567 40.247 42.4497 39.9497 42.215C39.655 41.9804 39.4668 41.6326 39.3849 41.1715ZM46.706 41.9327C46.4332 42.1646 46.1699 42.3282 45.9162 42.4237C45.6652 42.5192 45.3951 42.567 45.1059 42.567C44.6285 42.567 44.2615 42.451 44.0051 42.2191C43.7486 41.9845 43.6204 41.6858 43.6204 41.3229C43.6204 41.1101 43.6682 40.9164 43.7637 40.7418C43.8619 40.5645 43.9887 40.4226 44.1442 40.3162C44.3025 40.2098 44.4798 40.1293 44.6762 40.0748C44.8208 40.0366 45.0391 39.9998 45.331 39.9643C45.9257 39.8934 46.3636 39.8088 46.6446 39.7106C46.6473 39.6096 46.6487 39.5455 46.6487 39.5182C46.6487 39.2181 46.5791 39.0067 46.44 38.8839C46.2517 38.7175 45.9721 38.6343 45.6011 38.6343C45.2546 38.6343 44.9982 38.6957 44.8317 38.8185C44.668 38.9385 44.5466 39.1527 44.4675 39.4609L43.7473 39.3627C43.8128 39.0544 43.9205 38.8062 44.0706 38.6179C44.2206 38.427 44.4375 38.281 44.7212 38.1801C45.005 38.0764 45.3337 38.0246 45.7075 38.0246C46.0785 38.0246 46.38 38.0682 46.6119 38.1555C46.8438 38.2428 47.0143 38.3533 47.1234 38.487C47.2325 38.6179 47.3089 38.7843 47.3526 38.9862C47.3771 39.1117 47.3894 39.3382 47.3894 39.6656V40.6477C47.3894 41.3325 47.4044 41.7662 47.4344 41.949C47.4671 42.1291 47.5299 42.3023 47.6227 42.4688H46.8533C46.7769 42.316 46.7278 42.1373 46.706 41.9327ZM46.6446 40.2876C46.3772 40.3967 45.9762 40.4895 45.4415 40.5658C45.1387 40.6095 44.9245 40.6586 44.799 40.7132C44.6735 40.7677 44.5766 40.8482 44.5084 40.9546C44.4402 41.0583 44.4061 41.1742 44.4061 41.3025C44.4061 41.4989 44.4798 41.6626 44.6271 41.7935C44.7772 41.9245 44.9954 41.99 45.2819 41.99C45.5656 41.99 45.818 41.9286 46.0389 41.8058C46.2599 41.6803 46.4223 41.5098 46.5259 41.2943C46.605 41.1279 46.6446 40.8823 46.6446 40.5577V40.2876ZM48.5352 42.4688V38.1228H49.1982V38.7407C49.5174 38.2633 49.9784 38.0246 50.5814 38.0246C50.8433 38.0246 51.0833 38.0723 51.3016 38.1678C51.5226 38.2605 51.6876 38.3833 51.7968 38.5361C51.9059 38.6889 51.9823 38.8703 52.0259 39.0804C52.0532 39.2168 52.0669 39.4555 52.0669 39.7965V42.4688H51.3302V39.8251C51.3302 39.525 51.3016 39.3013 51.2443 39.154C51.187 39.004 51.0847 38.8853 50.9374 38.798C50.7928 38.708 50.6223 38.6629 50.4259 38.6629C50.1121 38.6629 49.8407 38.7625 49.6115 38.9617C49.3851 39.1608 49.2718 39.5387 49.2718 40.0952V42.4688H48.5352ZM54.8087 41.8099L54.9151 42.4606C54.7077 42.5042 54.5222 42.526 54.3585 42.526C54.0912 42.526 53.8838 42.4838 53.7365 42.3992C53.5892 42.3146 53.4855 42.2041 53.4255 42.0677C53.3655 41.9286 53.3355 41.638 53.3355 41.1961V38.6957H52.7953V38.1228H53.3355V37.0465L54.068 36.6045V38.1228H54.8087V38.6957H54.068V41.237C54.068 41.447 54.0802 41.5821 54.1048 41.6421C54.1321 41.7021 54.1744 41.7499 54.2317 41.7853C54.2917 41.8208 54.3763 41.8385 54.4854 41.8385C54.5672 41.8385 54.675 41.829 54.8087 41.8099ZM58.5081 41.0692L59.2692 41.1633C59.1492 41.608 58.9268 41.9531 58.6022 42.1987C58.2775 42.4442 57.8629 42.567 57.3581 42.567C56.7225 42.567 56.2178 42.3719 55.844 41.9818C55.473 41.5889 55.2875 41.0392 55.2875 40.3326C55.2875 39.6014 55.4757 39.034 55.8522 38.6302C56.2287 38.2264 56.717 38.0246 57.3172 38.0246C57.8983 38.0246 58.373 38.2223 58.7413 38.6179C59.1096 39.0135 59.2938 39.5701 59.2938 40.2876C59.2938 40.3312 59.2924 40.3967 59.2897 40.484H56.0486C56.0759 40.9614 56.2109 41.327 56.4538 41.5807C56.6966 41.8344 56.9994 41.9613 57.3622 41.9613C57.6323 41.9613 57.8629 41.8904 58.0538 41.7485C58.2448 41.6066 58.3962 41.3802 58.5081 41.0692ZM56.0895 39.8783H58.5163C58.4835 39.5128 58.3908 39.2386 58.238 39.0558C58.0034 38.7721 57.6992 38.6302 57.3254 38.6302C56.9871 38.6302 56.702 38.7434 56.4701 38.9699C56.241 39.1963 56.1141 39.4991 56.0895 39.8783ZM56.8834 37.5826L57.4277 36.4368H58.3935L57.4932 37.5826H56.8834ZM62.5308 44.1343V38.1228H63.2019V38.6875C63.3601 38.4665 63.5388 38.3015 63.738 38.1923C63.9371 38.0805 64.1786 38.0246 64.4623 38.0246C64.8333 38.0246 65.1607 38.12 65.4445 38.311C65.7282 38.502 65.9423 38.7721 66.0869 39.1213C66.2315 39.4678 66.3038 39.8483 66.3038 40.263C66.3038 40.7077 66.2233 41.1088 66.0624 41.4661C65.9042 41.8208 65.6723 42.0936 65.3667 42.2846C65.0639 42.4728 64.7447 42.567 64.4091 42.567C64.1636 42.567 63.9426 42.5151 63.7462 42.4115C63.5525 42.3078 63.3929 42.1768 63.2674 42.0186V44.1343H62.5308ZM63.1978 40.3203C63.1978 40.8796 63.311 41.2929 63.5375 41.5603C63.7639 41.8276 64.0381 41.9613 64.36 41.9613C64.6874 41.9613 64.967 41.8235 65.1989 41.548C65.4335 41.2697 65.5509 40.84 65.5509 40.2589C65.5509 39.7051 65.4363 39.2904 65.2071 39.0149C64.9807 38.7393 64.7092 38.6016 64.3927 38.6016C64.079 38.6016 63.8007 38.7489 63.5579 39.0435C63.3178 39.3354 63.1978 39.761 63.1978 40.3203ZM70.0319 41.9327C69.7591 42.1646 69.4958 42.3282 69.2421 42.4237C68.9911 42.5192 68.721 42.567 68.4318 42.567C67.9544 42.567 67.5874 42.451 67.331 42.2191C67.0745 41.9845 66.9463 41.6858 66.9463 41.3229C66.9463 41.1101 66.9941 40.9164 67.0895 40.7418C67.1878 40.5645 67.3146 40.4226 67.4701 40.3162C67.6284 40.2098 67.8057 40.1293 68.0021 40.0748C68.1467 40.0366 68.365 39.9998 68.6569 39.9643C69.2516 39.8934 69.6895 39.8088 69.9705 39.7106C69.9732 39.6096 69.9746 39.5455 69.9746 39.5182C69.9746 39.2181 69.905 39.0067 69.7659 38.8839C69.5776 38.7175 69.298 38.6343 68.927 38.6343C68.5805 38.6343 68.324 38.6957 68.1576 38.8185C67.9939 38.9385 67.8725 39.1527 67.7934 39.4609L67.0732 39.3627C67.1387 39.0544 67.2464 38.8062 67.3965 38.6179C67.5465 38.427 67.7634 38.281 68.0471 38.1801C68.3309 38.0764 68.6596 38.0246 69.0334 38.0246C69.4044 38.0246 69.7059 38.0682 69.9378 38.1555C70.1697 38.2428 70.3402 38.3533 70.4493 38.487C70.5584 38.6179 70.6348 38.7843 70.6785 38.9862C70.703 39.1117 70.7153 39.3382 70.7153 39.6656V40.6477C70.7153 41.3325 70.7303 41.7662 70.7603 41.949C70.793 42.1291 70.8558 42.3023 70.9485 42.4688H70.1792C70.1028 42.316 70.0537 42.1373 70.0319 41.9327ZM69.9705 40.2876C69.7031 40.3967 69.3021 40.4895 68.7674 40.5658C68.4645 40.6095 68.2504 40.6586 68.1249 40.7132C67.9994 40.7677 67.9025 40.8482 67.8343 40.9546C67.7661 41.0583 67.732 41.1742 67.732 41.3025C67.732 41.4989 67.8057 41.6626 67.953 41.7935C68.1031 41.9245 68.3213 41.99 68.6078 41.99C68.8915 41.99 69.1439 41.9286 69.3648 41.8058C69.5858 41.6803 69.7482 41.5098 69.8518 41.2943C69.9309 41.1279 69.9705 40.8823 69.9705 40.5577V40.2876ZM71.8529 42.4688V38.1228H72.5159V38.7816C72.685 38.4733 72.8405 38.2701 72.9824 38.1719C73.127 38.0737 73.2852 38.0246 73.4571 38.0246C73.7054 38.0246 73.9577 38.1037 74.2142 38.2619L73.9605 38.9453C73.7804 38.8389 73.6003 38.7857 73.4203 38.7857C73.2593 38.7857 73.1147 38.8348 72.9865 38.933C72.8583 39.0285 72.7669 39.1622 72.7123 39.3341C72.6305 39.596 72.5895 39.8824 72.5895 40.1935V42.4688H71.8529ZM76.9683 42.4688V36.4695H77.7049V42.4688H76.9683ZM81.8258 41.0692L82.5869 41.1633C82.4669 41.608 82.2446 41.9531 81.9199 42.1987C81.5953 42.4442 81.1806 42.567 80.6759 42.567C80.0402 42.567 79.5355 42.3719 79.1617 41.9818C78.7907 41.5889 78.6052 41.0392 78.6052 40.3326C78.6052 39.6014 78.7934 39.034 79.1699 38.6302C79.5464 38.2264 80.0347 38.0246 80.6349 38.0246C81.216 38.0246 81.6907 38.2223 82.059 38.6179C82.4273 39.0135 82.6115 39.5701 82.6115 40.2876C82.6115 40.3312 82.6101 40.3967 82.6074 40.484H79.3663C79.3936 40.9614 79.5287 41.327 79.7715 41.5807C80.0143 41.8344 80.3171 41.9613 80.6799 41.9613C80.95 41.9613 81.1806 41.8904 81.3715 41.7485C81.5625 41.6066 81.7139 41.3802 81.8258 41.0692ZM79.4073 39.8783H81.834C81.8012 39.5128 81.7085 39.2386 81.5557 39.0558C81.3211 38.7721 81.0169 38.6302 80.6431 38.6302C80.3048 38.6302 80.0197 38.7434 79.7878 38.9699C79.5587 39.1963 79.4318 39.4991 79.4073 39.8783ZM85.8485 42.4688V38.1228H86.5073V38.7325C86.6437 38.5197 86.8252 38.3492 87.0516 38.221C87.278 38.09 87.5359 38.0246 87.825 38.0246C88.147 38.0246 88.4102 38.0914 88.6148 38.2251C88.8222 38.3588 88.9681 38.5456 89.0527 38.7857C89.3965 38.2783 89.8439 38.0246 90.395 38.0246C90.826 38.0246 91.1575 38.1446 91.3894 38.3847C91.6213 38.622 91.7372 38.989 91.7372 39.4855V42.4688H91.0047V39.731C91.0047 39.4364 90.9802 39.225 90.9311 39.0967C90.8847 38.9658 90.7987 38.8607 90.6733 38.7816C90.5478 38.7025 90.4004 38.6629 90.2313 38.6629C89.9257 38.6629 89.672 38.7653 89.4701 38.9699C89.2682 39.1718 89.1673 39.4964 89.1673 39.9438V42.4688H88.4307V39.6451C88.4307 39.3177 88.3707 39.0722 88.2506 38.9085C88.1306 38.7448 87.9342 38.6629 87.6613 38.6629C87.454 38.6629 87.2617 38.7175 87.0843 38.8266C86.9097 38.9358 86.7829 39.0954 86.7038 39.3054C86.6246 39.5155 86.5851 39.8183 86.5851 40.2139V42.4688H85.8485ZM92.5557 40.2958C92.5557 39.4909 92.7794 38.8948 93.2268 38.5074C93.6006 38.1855 94.0562 38.0246 94.5936 38.0246C95.1911 38.0246 95.6795 38.221 96.0587 38.6138C96.4379 39.004 96.6275 39.5441 96.6275 40.2344C96.6275 40.7937 96.5429 41.2343 96.3738 41.5562C96.2074 41.8754 95.9632 42.1236 95.6413 42.301C95.3221 42.4783 94.9729 42.567 94.5936 42.567C93.9853 42.567 93.4928 42.3719 93.1163 41.9818C92.7426 41.5916 92.5557 41.0296 92.5557 40.2958ZM93.3128 40.2958C93.3128 40.8523 93.4342 41.2697 93.677 41.548C93.9198 41.8235 94.2253 41.9613 94.5936 41.9613C94.9592 41.9613 95.2634 41.8222 95.5062 41.5439C95.749 41.2656 95.8704 40.8414 95.8704 40.2712C95.8704 39.7338 95.7477 39.3273 95.5021 39.0517C95.2593 38.7734 94.9565 38.6343 94.5936 38.6343C94.2253 38.6343 93.9198 38.7721 93.677 39.0476C93.4342 39.3232 93.3128 39.7392 93.3128 40.2958ZM100.343 42.4688V41.8304C100.005 42.3214 99.5453 42.567 98.9642 42.567C98.7077 42.567 98.4676 42.5179 98.2439 42.4196C98.023 42.3214 97.8579 42.1987 97.7488 42.0513C97.6424 41.9013 97.5673 41.7185 97.5237 41.503C97.4937 41.3584 97.4787 41.1292 97.4787 40.8155V38.1228H98.2153V40.5331C98.2153 40.9178 98.2303 41.177 98.2603 41.3106C98.3067 41.5043 98.4049 41.6571 98.5549 41.769C98.705 41.8781 98.8905 41.9327 99.1115 41.9327C99.3325 41.9327 99.5398 41.8767 99.7335 41.7649C99.9272 41.6503 100.064 41.4962 100.143 41.3025C100.225 41.106 100.266 40.8223 100.266 40.4513V38.1228H101.002V42.4688H100.343ZM103.367 42.4688L101.714 38.1228H102.492L103.425 40.7254C103.526 41.0064 103.618 41.2984 103.703 41.6012C103.768 41.372 103.86 41.0965 103.977 40.7746L104.943 38.1228H105.7L104.055 42.4688H103.367ZM109.326 41.0692L110.087 41.1633C109.967 41.608 109.745 41.9531 109.42 42.1987C109.095 42.4442 108.681 42.567 108.176 42.567C107.54 42.567 107.035 42.3719 106.662 41.9818C106.291 41.5889 106.105 41.0392 106.105 40.3326C106.105 39.6014 106.293 39.034 106.67 38.6302C107.046 38.2264 107.535 38.0246 108.135 38.0246C108.716 38.0246 109.191 38.2223 109.559 38.6179C109.927 39.0135 110.112 39.5701 110.112 40.2876C110.112 40.3312 110.11 40.3967 110.107 40.484H106.866C106.894 40.9614 107.029 41.327 107.271 41.5807C107.514 41.8344 107.817 41.9613 108.18 41.9613C108.45 41.9613 108.681 41.8904 108.872 41.7485C109.063 41.6066 109.214 41.3802 109.326 41.0692ZM106.907 39.8783H109.334C109.301 39.5128 109.208 39.2386 109.056 39.0558C108.821 38.7721 108.517 38.6302 108.143 38.6302C107.805 38.6302 107.52 38.7434 107.288 38.9699C107.059 39.1963 106.932 39.4991 106.907 39.8783ZM111.016 42.4688V38.1228H111.675V38.7325C111.811 38.5197 111.993 38.3492 112.219 38.221C112.445 38.09 112.703 38.0246 112.992 38.0246C113.314 38.0246 113.578 38.0914 113.782 38.2251C113.99 38.3588 114.136 38.5456 114.22 38.7857C114.564 38.2783 115.011 38.0246 115.562 38.0246C115.993 38.0246 116.325 38.1446 116.557 38.3847C116.789 38.622 116.905 38.989 116.905 39.4855V42.4688H116.172V39.731C116.172 39.4364 116.148 39.225 116.098 39.0967C116.052 38.9658 115.966 38.8607 115.841 38.7816C115.715 38.7025 115.568 38.6629 115.399 38.6629C115.093 38.6629 114.839 38.7653 114.638 38.9699C114.436 39.1718 114.335 39.4964 114.335 39.9438V42.4688H113.598V39.6451C113.598 39.3177 113.538 39.0722 113.418 38.9085C113.298 38.7448 113.102 38.6629 112.829 38.6629C112.621 38.6629 112.429 38.7175 112.252 38.8266C112.077 38.9358 111.95 39.0954 111.871 39.3054C111.792 39.5155 111.752 39.8183 111.752 40.2139V42.4688H111.016ZM120.972 41.0692L121.734 41.1633C121.613 41.608 121.391 41.9531 121.066 42.1987C120.742 42.4442 120.327 42.567 119.822 42.567C119.187 42.567 118.682 42.3719 118.308 41.9818C117.937 41.5889 117.752 41.0392 117.752 40.3326C117.752 39.6014 117.94 39.034 118.316 38.6302C118.693 38.2264 119.181 38.0246 119.782 38.0246C120.363 38.0246 120.837 38.2223 121.206 38.6179C121.574 39.0135 121.758 39.5701 121.758 40.2876C121.758 40.3312 121.757 40.3967 121.754 40.484H118.513C118.54 40.9614 118.675 41.327 118.918 41.5807C119.161 41.8344 119.464 41.9613 119.827 41.9613C120.097 41.9613 120.327 41.8904 120.518 41.7485C120.709 41.6066 120.861 41.3802 120.972 41.0692ZM118.554 39.8783H120.981C120.948 39.5128 120.855 39.2386 120.702 39.0558C120.468 38.7721 120.163 38.6302 119.79 38.6302C119.451 38.6302 119.166 38.7434 118.934 38.9699C118.705 39.1963 118.578 39.4991 118.554 39.8783ZM122.662 42.4688V38.1228H123.325V38.7407C123.645 38.2633 124.106 38.0246 124.709 38.0246C124.97 38.0246 125.211 38.0723 125.429 38.1678C125.65 38.2605 125.815 38.3833 125.924 38.5361C126.033 38.6889 126.11 38.8703 126.153 39.0804C126.18 39.2168 126.194 39.4555 126.194 39.7965V42.4688H125.457V39.8251C125.457 39.525 125.429 39.3013 125.372 39.154C125.314 39.004 125.212 38.8853 125.065 38.798C124.92 38.708 124.75 38.6629 124.553 38.6629C124.239 38.6629 123.968 38.7625 123.739 38.9617C123.512 39.1608 123.399 39.5387 123.399 40.0952V42.4688H122.662ZM128.936 41.8099L129.042 42.4606C128.835 42.5042 128.649 42.526 128.486 42.526C128.218 42.526 128.011 42.4838 127.864 42.3992C127.716 42.3146 127.613 42.2041 127.553 42.0677C127.493 41.9286 127.463 41.638 127.463 41.1961V38.6957H126.923V38.1228H127.463V37.0465L128.195 36.6045V38.1228H128.936V38.6957H128.195V41.237C128.195 41.447 128.207 41.5821 128.232 41.6421C128.259 41.7021 128.302 41.7499 128.359 41.7853C128.419 41.8208 128.503 41.8385 128.613 41.8385C128.694 41.8385 128.802 41.829 128.936 41.8099Z" fill="#181D27"/>
</svg>
